<?xml version="1.0" encoding="UTF-8" standalone="no"?><!DOCTYPE svg PUBLIC "-//W3C//DTD SVG 1.1//EN" "http://www.w3.org/Graphics/SVG/1.1/DTD/svg11.dtd"><svg width="100%" height="100%" viewBox="0 0 6000 400" version="1.1" xmlns="http://www.w3.org/2000/svg" xmlns:xlink="http://www.w3.org/1999/xlink" xml:space="preserve" style="fill-rule:evenodd;clip-rule:evenodd;stroke-linejoin:round;stroke-miterlimit:1.41421;"><g id="Layer4"><g><path d="M3029.47,242.811l0.46,0.237c7.801,4.058 15.575,8.169 23.324,12.325c5.086,2.728 10.162,5.476 15.229,8.241c2.679,1.462 5.355,2.93 8.03,4.399c5.928,3.256 11.846,6.531 17.755,9.823c9.089,5.065 18.156,10.171 27.222,15.279c-3.607,-2.025 -7.213,-4.049 -10.821,-6.071c-5.47,-3.063 -10.944,-6.122 -16.425,-9.165c-5.914,-3.282 -11.837,-6.548 -17.771,-9.794c-1.334,-0.73 -2.671,-1.455 -4.008,-2.182c-2.707,-1.47 -5.416,-2.936 -8.129,-4.397c-9.978,-5.373 -19.994,-10.676 -30.057,-15.889l-5.176,-2.65l0.367,-0.156Z" style="fill:#8dc22b;fill-opacity:0.701961;"/><path d="M2023.61,234.722l-15.975,-6.153c-7.268,-2.715 -14.565,-5.351 -21.907,-7.855c-6.52,-2.224 -13.076,-4.344 -19.682,-6.299c-5.12,-1.515 -10.27,-2.931 -15.457,-4.196c-4.588,-1.119 -9.207,-2.121 -13.859,-2.938c-3.34,-0.587 -6.699,-1.079 -10.073,-1.422c-3.181,-0.323 -6.381,-0.521 -9.58,-0.479c-0.699,0.01 -1.398,0.031 -2.096,0.066c-0.437,0.023 -0.873,0.053 -1.31,0.082c-0.452,0.058 -0.905,0.108 -1.357,0.165c-4.623,0.602 -9.184,1.613 -13.667,2.884c-4.826,1.368 -9.564,3.037 -14.219,4.904c-3.583,1.438 -7.117,2.995 -10.607,4.645c-1.226,0.58 -2.447,1.171 -3.662,1.772c-0.618,0.306 -1.236,0.611 -1.85,0.926c-0.094,0.049 -0.187,0.1 -0.282,0.148c-0.422,0.215 -0.847,0.427 -1.268,0.644c-2.105,1.084 -4.195,2.197 -6.269,3.337c-4.752,2.611 -9.424,5.362 -14.038,8.208l-0.159,0.099c-0.629,0.278 -1.257,0.558 -1.884,0.839c-0.687,0.309 -1.373,0.62 -2.058,0.933c-2.766,1.268 -5.518,2.568 -8.252,3.903c-8.74,4.267 -17.319,8.86 -25.773,13.668c-6.03,3.43 -11.999,6.969 -17.914,10.593c-4.766,2.92 -9.503,5.888 -14.217,8.891c-4.656,2.966 -9.29,5.967 -13.923,8.969l-40.785,-62.941l-40.786,-62.941c5.812,-3.766 11.627,-7.527 17.477,-11.234c7.614,-4.826 15.283,-9.566 23.03,-14.177c16.274,-9.686 32.893,-18.811 49.965,-27.018c4.812,-2.314 9.66,-4.55 14.544,-6.709c0.787,-0.263 1.576,-0.522 2.364,-0.781c4.256,-1.387 8.527,-2.725 12.82,-3.993c5.461,-1.613 10.954,-3.121 16.477,-4.508c1.49,-0.375 2.981,-0.742 4.476,-1.096c0.365,-0.087 0.731,-0.171 1.096,-0.258c7.593,-1.792 15.244,-3.342 22.942,-4.611c9.654,-1.591 19.385,-2.737 29.153,-3.327c4.275,-0.258 8.556,-0.404 12.839,-0.444c0.822,-0.006 1.644,-0.008 2.467,-0.007c3.312,0.013 6.624,0.088 9.933,0.243c6.522,0.305 13.031,0.905 19.494,1.833c2.118,0.304 4.231,0.643 6.337,1.019c1.064,0.189 2.127,0.385 3.187,0.595c0.851,0.17 1.702,0.348 2.551,0.53c11.97,2.566 23.67,6.296 35.072,10.735c6.309,2.456 12.531,5.132 18.678,7.968c6.198,2.861 12.321,5.885 18.381,9.028c12.917,6.697 25.555,13.922 38.044,21.382c14.453,8.632 28.707,17.59 42.931,26.594c8.264,5.24 16.521,10.492 24.785,15.733l1.062,0.672c2.234,1.427 4.47,2.853 6.706,4.277l7.666,4.841c-5.446,2.486 -10.876,5.027 -16.285,7.61c-19.29,9.211 -38.32,18.964 -57.135,29.108c-6.752,3.64 -13.474,7.334 -20.175,11.067c-1.52,0.849 -3.04,1.7 -4.558,2.552l-3.415,1.924Z" style="fill:#8dc22b;fill-opacity:0.701961;"/><path d="M-305.85,180.905c10.714,-6.165 21.37,-12.464 32.016,-18.78c5.622,-3.316 11.24,-6.637 16.862,-9.953c14.612,-8.612 29.244,-17.193 44.042,-25.483c13.153,-7.369 26.437,-14.517 39.97,-21.167c7.023,-3.451 14.114,-6.766 21.29,-9.887c6.855,-2.981 13.789,-5.786 20.812,-8.347c12.832,-4.679 25.985,-8.555 39.418,-11.073c1.462,-0.274 2.927,-0.532 4.395,-0.773c1.753,-0.287 3.511,-0.543 5.271,-0.777c4.114,-0.549 8.245,-0.963 12.386,-1.25c2.789,-0.193 5.582,-0.329 8.377,-0.409c1.49,-0.043 2.982,-0.068 4.473,-0.082c0.848,-0.006 1.696,-0.008 2.544,-0.006c1.476,0.008 2.953,0.026 4.429,0.06c2.926,0.069 5.85,0.194 8.771,0.373c12.957,0.793 25.838,2.639 38.544,5.277c7.67,1.593 15.281,3.472 22.819,5.601c1.842,0.52 3.68,1.051 5.515,1.598c5.455,1.628 10.874,3.377 16.256,5.233c3.174,1.095 6.335,2.227 9.483,3.392c1.73,0.641 3.456,1.294 5.179,1.953l0.255,0.099c4.884,2.159 9.732,4.395 14.544,6.708c17.072,8.207 33.691,17.333 49.966,27.019c7.746,4.611 15.415,9.351 23.029,14.177c5.85,3.707 11.665,7.468 17.477,11.234l-81.571,125.882c-2.079,-1.348 -4.159,-2.694 -6.239,-4.039c-1.443,-0.93 -2.887,-1.86 -4.332,-2.787c-4.61,-2.954 -9.235,-5.886 -13.89,-8.769c-8.854,-5.484 -17.811,-10.802 -26.921,-15.849c-7.839,-4.342 -15.791,-8.486 -23.885,-12.336c-2.73,-1.298 -5.477,-2.56 -8.239,-3.789l-0.514,-0.227c-0.496,-0.263 -0.992,-0.524 -1.489,-0.784c-0.66,-0.345 -1.321,-0.688 -1.983,-1.03c-3.459,-1.776 -6.947,-3.498 -10.472,-5.139c-2.124,-0.988 -4.261,-1.949 -6.412,-2.878c-0.64,-0.276 -1.282,-0.547 -1.924,-0.818c-2.844,-1.201 -5.713,-2.341 -8.608,-3.412c-3.17,-1.172 -6.372,-2.261 -9.607,-3.241c-4.416,-1.339 -8.897,-2.482 -13.437,-3.32c-4.149,-0.767 -8.353,-1.28 -12.574,-1.377l-0.156,-0.006c-0.928,0.012 -1.856,0.036 -2.783,0.088c-2.954,0.166 -5.896,0.532 -8.816,1.002c-3.341,0.538 -6.658,1.218 -9.953,1.986c-4.442,1.036 -8.845,2.233 -13.217,3.532c-4.986,1.481 -9.932,3.095 -14.848,4.795c-5.908,2.044 -11.773,4.213 -17.606,6.462c-6.593,2.541 -13.147,5.185 -19.674,7.891l-13.655,5.8l-10.823,-5.583c-6.497,-3.328 -13.01,-6.623 -19.546,-9.873c-15.628,-7.771 -31.377,-15.301 -47.267,-22.522c-10.924,-4.965 -21.914,-9.784 -32.979,-14.428c-8.191,-3.437 -16.422,-6.779 -24.703,-9.968Z" style="fill:#ffe955;fill-opacity:0.701961;"/><path d="M2891.89,181.75l5.687,2.043c17.59,6.567 34.97,13.689 52.167,21.223c14.374,6.297 28.62,12.882 42.758,19.693c8.703,4.193 17.367,8.469 25.991,12.825l10.611,5.433c-9.607,4.068 -19.14,8.26 -28.664,12.466c-6.703,2.966 -13.402,5.938 -20.102,8.908l-1.163,0.514c-3.611,1.589 -7.223,3.175 -10.837,4.758c-26.916,11.775 -53.954,23.315 -81.496,33.562c-11.051,4.111 -22.182,8.013 -33.409,11.618c-10.559,3.39 -21.203,6.518 -31.94,9.293c-10.338,2.672 -20.763,5.017 -31.269,6.932c-9.472,1.728 -19.01,3.106 -28.593,4.045c-6.991,0.685 -14.005,1.135 -21.027,1.314c-3.18,0.081 -6.36,0.102 -9.54,0.07c-4.807,-0.048 -9.615,-0.236 -14.411,-0.576c-11.407,-0.809 -22.744,-2.504 -33.913,-4.947c-10.932,-2.39 -21.703,-5.495 -32.276,-9.154c-15.088,-5.222 -29.771,-11.568 -44.092,-18.613c-15.622,-7.684 -30.823,-16.201 -45.767,-25.124c-3.137,-1.874 -6.263,-3.765 -9.38,-5.672c-1.339,-0.819 -2.675,-1.643 -4.012,-2.466c-1.252,-0.771 -2.505,-1.539 -3.755,-2.312c-2.581,-1.595 -5.157,-3.199 -7.728,-4.81c-6.654,-4.167 -13.277,-8.383 -19.893,-12.609l-11.335,-7.26l7.665,-4.745c7.112,-4.436 14.215,-8.886 21.325,-13.324c10.357,-6.454 20.734,-12.881 31.229,-19.141l12.949,6.115c0.523,0.244 1.047,0.485 1.572,0.727c2.09,0.959 4.182,1.915 6.277,2.863c3.618,1.636 7.247,3.248 10.888,4.834c6.597,2.874 13.234,5.659 19.924,8.312c9.067,3.597 18.233,6.958 27.521,9.943c9.099,2.924 18.32,5.492 27.665,7.51c8.346,1.802 16.795,3.166 25.305,3.901c7.31,0.631 14.666,0.795 21.992,0.357c2.941,-0.175 5.877,-0.441 8.803,-0.784c2.106,-0.247 4.207,-0.527 6.304,-0.847c6.15,-0.938 12.252,-2.183 18.294,-3.662c6.721,-1.646 13.369,-3.579 19.946,-5.728c7.014,-2.292 13.946,-4.83 20.806,-7.548c10.079,-3.996 20.002,-8.383 29.799,-13.026c10.623,-5.035 21.101,-10.374 31.476,-15.903c10.776,-5.742 21.44,-11.691 32.038,-17.755l5.61,-3.253Z" style="fill:#faca33;fill-opacity:0.701961;"/><path d="M2023.61,234.722l7.174,2.762l-2.713,1.207l-1.57,0.712l-0.866,0.393c-1.264,0.595 -2.528,1.193 -3.792,1.79c-4.075,1.933 -8.144,3.876 -12.206,5.835c-8.318,4.013 -16.607,8.085 -24.871,12.206c-4.178,2.083 -8.349,4.179 -12.514,6.286c-1.355,0.685 -2.709,1.372 -4.062,2.059c-0.456,0.232 -0.916,0.456 -1.368,0.696c-8.408,4.456 -16.791,8.957 -25.16,13.485c-6.732,3.642 -13.454,7.302 -20.175,10.962c3.576,-2.077 7.154,-4.153 10.732,-6.227c5.426,-3.143 10.856,-6.281 16.294,-9.404c5.867,-3.369 11.744,-6.72 17.631,-10.053c1.751,-1.03 3.503,-2.057 5.255,-3.083c9.149,-5.351 18.328,-10.65 27.55,-15.876c7.821,-4.433 15.672,-8.811 23.553,-13.136l0.676,-0.371l0.432,-0.243Z" style="fill:#faca33;fill-opacity:0.701961;"/><path d="M2894.15,180.438c10.714,-6.165 21.37,-12.465 32.016,-18.781c5.622,-3.316 11.24,-6.637 16.862,-9.953c14.612,-8.612 29.244,-17.193 44.042,-25.483c13.153,-7.369 26.437,-14.517 39.97,-21.167c7.023,-3.45 14.114,-6.765 21.29,-9.886c6.855,-2.982 13.789,-5.787 20.812,-8.348c12.832,-4.678 25.985,-8.555 39.418,-11.072c1.462,-0.274 2.927,-0.533 4.395,-0.774c1.753,-0.287 3.511,-0.543 5.271,-0.777c4.114,-0.549 8.245,-0.963 12.386,-1.25c2.789,-0.193 5.582,-0.329 8.377,-0.409c1.49,-0.043 2.982,-0.068 4.473,-0.082c0.848,-0.006 1.696,-0.007 2.544,-0.006c1.476,0.008 2.953,0.026 4.429,0.061c2.926,0.068 5.85,0.193 8.771,0.372c12.957,0.793 25.838,2.639 38.544,5.278c7.67,1.592 15.281,3.472 22.819,5.6c1.842,0.52 3.68,1.051 5.515,1.598c5.455,1.628 10.874,3.378 16.256,5.234c3.174,1.094 6.335,2.226 9.483,3.392c1.73,0.64 3.456,1.293 5.179,1.952l0.255,0.099c4.884,2.159 9.732,4.395 14.544,6.709c17.072,8.207 33.691,17.332 49.966,27.018c7.746,4.611 15.415,9.351 23.029,14.177c5.85,3.707 11.665,7.468 17.477,11.234l-81.571,125.882c-2.079,-1.347 -4.159,-2.694 -6.239,-4.038c-1.443,-0.931 -2.887,-1.86 -4.332,-2.788c-4.61,-2.954 -9.235,-5.886 -13.89,-8.769c-8.854,-5.483 -17.811,-10.802 -26.921,-15.849c-7.839,-4.342 -15.791,-8.486 -23.885,-12.335c-2.73,-1.299 -5.477,-2.56 -8.239,-3.789l-0.514,-0.228c-0.496,-0.263 -0.992,-0.523 -1.489,-0.784c-0.66,-0.345 -1.321,-0.688 -1.983,-1.03c-3.459,-1.776 -6.947,-3.497 -10.472,-5.138c-2.124,-0.989 -4.261,-1.95 -6.412,-2.879c-0.64,-0.276 -1.282,-0.547 -1.924,-0.818c-2.844,-1.201 -5.713,-2.341 -8.608,-3.411c-3.17,-1.173 -6.372,-2.262 -9.607,-3.242c-4.416,-1.339 -8.897,-2.482 -13.437,-3.32c-4.149,-0.766 -8.353,-1.279 -12.574,-1.377l-0.156,-0.005c-0.928,0.011 -1.856,0.036 -2.783,0.087c-2.954,0.166 -5.896,0.533 -8.816,1.003c-3.341,0.537 -6.658,1.217 -9.953,1.985c-4.442,1.036 -8.845,2.234 -13.217,3.532c-4.986,1.481 -9.932,3.095 -14.848,4.795c-5.908,2.044 -11.773,4.213 -17.606,6.462c-6.593,2.541 -13.147,5.185 -19.674,7.891l-13.655,5.8l-10.823,-5.583c-6.497,-3.328 -13.01,-6.623 -19.546,-9.873c-15.628,-7.771 -31.377,-15.301 -47.267,-22.522c-10.924,-4.965 -21.914,-9.784 -32.979,-14.428c-8.191,-3.437 -16.422,-6.779 -24.703,-9.967Z" style="fill:#faca33;fill-opacity:0.701961;"/><path d="M2125.18,182.461c15.666,-7.17 31.506,-13.942 47.549,-20.204c0.965,-0.387 1.932,-0.771 2.899,-1.154c4.311,-1.704 8.635,-3.374 12.976,-5c14.27,-5.344 28.713,-10.241 43.337,-14.527c14.741,-4.32 29.671,-8.023 44.771,-10.855c9.557,-1.792 19.182,-3.233 28.855,-4.232c3.632,-0.375 7.269,-0.688 10.912,-0.932c3.1,-0.208 6.203,-0.371 9.309,-0.453c6.019,-0.159 12.044,-0.045 18.054,0.313c6.89,0.412 13.759,1.146 20.586,2.157c2.285,0.338 4.566,0.707 6.842,1.106c1.087,0.19 2.173,0.389 3.258,0.591c1.763,0.327 3.525,0.663 5.284,1.019c3.422,0.694 6.833,1.45 10.229,2.262c11.162,2.667 22.174,5.936 33.04,9.622c15.89,5.392 31.469,11.67 46.836,18.4c17.999,7.881 35.714,16.39 53.376,24.994l18.367,8.972l-10.038,4.981c-6.421,3.224 -12.837,6.458 -19.256,9.686c-9.035,4.536 -18.077,9.057 -27.167,13.484l-7.093,3.427c-8.274,-5.231 -16.598,-10.373 -25.003,-15.382c-12.408,-7.393 -24.997,-14.499 -37.895,-21.006c-9.395,-4.74 -18.957,-9.162 -28.723,-13.086c-4.697,-1.887 -9.44,-3.658 -14.233,-5.288c-1.648,-0.561 -3.303,-1.105 -4.963,-1.631c-0.75,-0.238 -1.501,-0.476 -2.256,-0.703c-5.319,-1.599 -10.694,-3.011 -16.121,-4.196c-6.961,-1.522 -14.007,-2.67 -21.1,-3.364c-1.871,-0.183 -3.745,-0.334 -5.621,-0.453c-1.7,-0.108 -3.402,-0.187 -5.104,-0.254c-3.49,-0.137 -6.983,-0.203 -10.476,-0.205c-11.547,-0.006 -23.089,0.68 -34.573,1.865c-9.683,1 -19.328,2.358 -28.924,3.996c-10.278,1.754 -20.501,3.83 -30.664,6.161c-7.54,1.729 -15.047,3.598 -22.522,5.587c-2.326,0.619 -4.649,1.25 -6.969,1.892c-1.455,0.402 -2.911,0.802 -4.36,1.226c-1.161,0.34 -2.322,0.683 -3.481,1.028c-5.242,1.566 -10.47,3.179 -15.68,4.845c-5.854,1.872 -11.689,3.805 -17.479,5.808l-7.476,-4.621l-9.303,-5.876Z" style="fill:#faca33;fill-opacity:0.701961;"/><path d="M2894.15,180.438c8.281,3.188 16.512,6.53 24.703,9.967c11.065,4.644 22.055,9.463 32.979,14.428c15.89,7.221 31.639,14.751 47.267,22.522c6.536,3.25 13.049,6.545 19.546,9.873l10.823,5.583l-0.367,0.156l-10.611,-5.433c-8.624,-4.356 -17.288,-8.632 -25.991,-12.825c-14.138,-6.811 -28.384,-13.396 -42.758,-19.693c-17.197,-7.534 -34.577,-14.656 -52.167,-21.223l-5.687,-2.043l2.263,-1.312Z" style="fill:#8dc22b;fill-opacity:0.701961;"/><path d="M2894.15,180.438c8.281,3.188 16.512,6.53 24.703,9.967c11.065,4.644 22.055,9.463 32.979,14.428c15.89,7.221 31.639,14.751 47.267,22.522c6.536,3.25 13.049,6.545 19.546,9.873l10.823,5.583l-0.367,0.156l-10.611,-5.433c-8.624,-4.356 -17.288,-8.632 -25.991,-12.825c-14.138,-6.811 -28.384,-13.396 -42.758,-19.693c-17.197,-7.534 -34.577,-14.656 -52.167,-21.223l-5.687,-2.043l2.263,-1.312Z" style="fill:#faca33;fill-opacity:0.701961;"/><path d="M2541.66,194.54l1.02,0.499c6.915,3.372 13.832,6.737 20.772,10.057l1.267,0.598c-10.495,6.26 -20.872,12.687 -31.229,19.141c-7.11,4.438 -14.213,8.888 -21.325,13.324l-7.665,4.745l-9.816,-6.286l-16.578,-10.5l7.093,-3.427c9.09,-4.427 18.132,-8.948 27.167,-13.484c6.419,-3.228 12.835,-6.462 19.256,-9.686l10.038,-4.981Z" style="fill:#faca33;fill-opacity:0.701961;"/><path d="M2495.34,248.576c-2.769,1.698 -5.545,3.384 -8.322,5.069c-1.322,0.801 -2.642,1.604 -3.966,2.403c-3.328,2.008 -6.666,4.002 -10.016,5.976c-12.282,7.239 -24.72,14.223 -37.42,20.705c-11.234,5.735 -22.675,11.077 -34.371,15.802c-11.064,4.469 -22.358,8.385 -33.874,11.52c-6.184,1.683 -12.429,3.136 -18.725,4.337c-2.447,0.468 -4.903,0.891 -7.365,1.275c-5.972,0.932 -11.982,1.62 -18.012,2.041c-11.262,0.787 -22.577,0.711 -33.84,-0.023c-13.69,-0.892 -27.308,-2.753 -40.79,-5.281c-14.809,-2.776 -29.46,-6.356 -43.957,-10.452c-16.049,-4.533 -31.913,-9.701 -47.643,-15.232c-12.465,-4.383 -24.848,-8.998 -37.18,-13.741c-10.713,-4.121 -21.388,-8.34 -32.049,-12.595c-4.086,-1.631 -8.169,-3.267 -12.252,-4.904c-1.916,-0.769 -3.834,-1.535 -5.749,-2.307c-2.685,-1.081 -5.364,-2.176 -8.046,-3.264l-6.812,-2.758c-8.041,-3.248 -16.087,-6.484 -24.162,-9.663l18.06,-8.03c18.791,-8.198 37.743,-16.031 56.887,-23.365c11.989,-4.593 24.053,-8.991 36.226,-13.131c14.554,9.051 29.262,17.859 44.232,26.213c9.963,5.56 20.042,10.915 30.274,15.965c9.303,4.592 18.733,8.932 28.316,12.909c7.886,3.272 15.876,6.3 23.979,8.993c7.676,2.551 15.455,4.803 23.332,6.651c5.385,1.264 10.816,2.338 16.284,3.179c2.083,0.32 4.171,0.604 6.263,0.856c5.088,0.614 10.205,1.003 15.329,1.131c13.44,0.336 26.887,-1.046 40.084,-3.543c7.513,-1.422 14.956,-3.205 22.321,-5.259c7.97,-2.224 15.85,-4.765 23.647,-7.534c11.872,-4.218 23.552,-8.962 35.095,-14.007c4.763,-2.081 9.502,-4.215 14.223,-6.389c2.694,-1.239 5.382,-2.491 8.064,-3.757c1.282,-0.607 2.562,-1.219 3.842,-1.832l0.862,-0.416l7.093,-3.427c9.09,-4.427 18.132,-8.948 27.167,-13.484c6.419,-3.228 12.835,-6.462 19.256,-9.686l10.038,-4.981l1.188,-0.595c12.285,-6.144 24.609,-12.149 37.068,-17.865c13.771,-6.318 27.711,-12.29 41.913,-17.575c12.148,-4.52 24.492,-8.539 37.051,-11.758c4.317,-1.106 8.659,-2.112 13.022,-3.019c2.888,-0.6 5.783,-1.16 8.69,-1.664c5.457,-0.946 10.947,-1.706 16.458,-2.254c5.994,-0.597 12.013,-0.939 18.036,-0.997c1.601,-0.015 3.202,-0.01 4.802,0.015c1.595,0.026 3.189,0.072 4.782,0.13c2.672,0.097 5.342,0.231 8.01,0.401c9.297,0.592 18.565,1.61 27.781,2.962c14.443,2.119 28.761,5.057 42.929,8.564c15.657,3.876 31.137,8.45 46.45,13.511c4.049,1.338 8.087,2.71 12.113,4.115c1.836,0.64 3.669,1.29 5.501,1.94c1.919,0.682 3.838,1.367 5.753,2.06c4.337,1.571 8.662,3.177 12.974,4.815l7.97,3.112l-2.263,1.312l-14.277,-5.13c-3.657,-1.261 -7.323,-2.498 -10.999,-3.701c-1.262,-0.414 -2.527,-0.819 -3.793,-1.223c-2.317,-0.741 -4.639,-1.469 -6.964,-2.185c-6.629,-2.042 -13.29,-3.985 -19.981,-5.814c-13.608,-3.719 -27.348,-6.974 -41.208,-9.606c-12.671,-2.406 -25.446,-4.293 -38.291,-5.471c-8.243,-0.756 -16.516,-1.218 -24.793,-1.317c-2.336,-0.028 -4.673,-0.027 -7.009,0.005c-1.537,0.022 -3.073,0.054 -4.609,0.107c-1.525,0.053 -3.05,0.126 -4.573,0.219c-7.655,0.467 -15.277,1.432 -22.82,2.816c-4.074,0.747 -8.125,1.616 -12.15,2.593c-1.268,0.308 -2.533,0.626 -3.795,0.955c-0.76,0.198 -1.52,0.397 -2.277,0.605c-2.283,0.627 -4.557,1.283 -6.823,1.972c-4.841,1.472 -9.639,3.085 -14.394,4.816c-10.811,3.937 -21.396,8.482 -31.786,13.42c-13.655,6.49 -26.978,13.66 -40.096,21.171c-5.204,2.98 -10.376,6.015 -15.506,9.096l-1.025,0.616c-10.495,6.26 -20.872,12.687 -31.229,19.141c-7.11,4.438 -14.213,8.888 -21.325,13.324l-7.665,4.745l-9.163,5.672Z" style="fill:#8dc22b;fill-opacity:0.701961;"/><path d="M2134.48,188.337l7.476,4.621c-12.173,4.14 -24.237,8.538 -36.226,13.131c-19.144,7.334 -38.096,15.167 -56.887,23.365l-18.06,8.03l-7.174,-2.762l3.415,-1.924c1.518,-0.852 3.038,-1.703 4.558,-2.552c6.701,-3.733 13.423,-7.427 20.175,-11.067c18.815,-10.144 37.845,-19.897 57.135,-29.108c5.409,-2.583 10.839,-5.124 16.285,-7.61l9.303,5.876Z" style="fill:#8dc22b;fill-opacity:0.701961;"/><path d="M2134.48,188.337l7.476,4.621c-12.173,4.14 -24.237,8.538 -36.226,13.131c-19.144,7.334 -38.096,15.167 -56.887,23.365l-18.06,8.03l-7.174,-2.762l3.415,-1.924c1.518,-0.852 3.038,-1.703 4.558,-2.552c6.701,-3.733 13.423,-7.427 20.175,-11.067c18.815,-10.144 37.845,-19.897 57.135,-29.108c5.409,-2.583 10.839,-5.124 16.285,-7.61l9.303,5.876Z" style="fill:#faca33;fill-opacity:0.701961;"/><path d="M540.499,260.153c-7.924,4.611 -15.81,9.277 -23.69,13.952c-5.622,3.316 -11.24,6.637 -16.862,9.953c-16.673,9.826 -33.371,19.615 -50.313,28.973c-7.517,4.152 -15.083,8.218 -22.718,12.149c-7.261,3.738 -14.586,7.355 -21.994,10.792c-7.322,3.398 -14.726,6.622 -22.23,9.597c-6.95,2.755 -13.986,5.297 -21.116,7.548c-6.656,2.102 -13.395,3.951 -20.209,5.47c-3.761,0.838 -7.544,1.578 -11.347,2.201c-1.317,0.215 -2.637,0.412 -3.959,0.598c-4.332,0.608 -8.686,1.066 -13.05,1.383c-3.855,0.28 -7.719,0.449 -11.584,0.514c-20.261,0.34 -40.501,-2.176 -60.262,-6.553c-3.066,-0.679 -6.121,-1.403 -9.166,-2.169c-3.574,-0.899 -7.133,-1.858 -10.678,-2.866c-5.506,-1.566 -10.975,-3.266 -16.406,-5.075c-4.263,-1.419 -8.503,-2.907 -12.72,-4.457c-2.079,-0.765 -4.152,-1.547 -6.222,-2.338l-0.255,-0.099c-4.884,-2.159 -9.732,-4.395 -14.544,-6.708c-17.072,-8.207 -33.691,-17.333 -49.965,-27.019c-7.747,-4.611 -15.416,-9.351 -23.03,-14.177c-5.85,-3.707 -11.665,-7.468 -17.477,-11.234l81.571,-125.882c2.079,1.348 4.159,2.694 6.239,4.039c1.443,0.93 2.887,1.86 4.332,2.787c4.61,2.954 9.235,5.886 13.89,8.769c8.854,5.484 17.811,10.802 26.921,15.849c7.839,4.342 15.791,8.486 23.885,12.336c2.73,1.298 5.477,2.56 8.24,3.789l0.514,0.227c0.495,0.263 0.992,0.524 1.488,0.784c0.66,0.345 1.321,0.688 1.983,1.03c3.459,1.776 6.947,3.497 10.472,5.139c2.124,0.988 4.261,1.949 6.412,2.878c0.64,0.276 1.282,0.547 1.924,0.818c2.844,1.201 5.713,2.341 8.608,3.412c3.17,1.172 6.372,2.261 9.607,3.241c4.416,1.339 8.897,2.482 13.437,3.32c4.15,0.767 8.353,1.28 12.574,1.377l0.156,0.006c0.929,-0.012 1.856,-0.036 2.783,-0.088c2.954,-0.166 5.896,-0.532 8.816,-1.002c3.341,-0.538 6.658,-1.218 9.953,-1.986c4.442,-1.036 8.845,-2.233 13.217,-3.532c4.986,-1.481 9.932,-3.095 14.848,-4.795c5.908,-2.044 11.773,-4.213 17.606,-6.462c6.593,-2.541 13.147,-5.185 19.674,-7.891l11.125,-4.725l4.034,2.27c1.493,0.826 2.987,1.652 4.481,2.476c1.229,0.676 2.457,1.351 3.687,2.025l0.83,0.469c6.615,3.728 13.249,7.421 19.912,11.062c18.648,10.192 37.501,20.014 56.605,29.326c13.2,6.434 26.52,12.625 39.973,18.499Z" style="fill:#ffe955;fill-opacity:0.701961;"/><path d="M983.668,221.23l6.205,3.796c12.408,7.393 24.997,14.499 37.895,21.006c9.395,4.74 18.957,9.162 28.723,13.086c4.697,1.887 9.44,3.658 14.233,5.288c1.648,0.561 3.303,1.105 4.963,1.631c0.75,0.238 1.501,0.477 2.256,0.703c5.319,1.599 10.694,3.011 16.121,4.197c6.961,1.521 14.007,2.669 21.1,3.363c1.871,0.183 3.745,0.335 5.621,0.453c1.7,0.108 3.402,0.187 5.104,0.254c3.49,0.137 6.983,0.203 10.476,0.205c11.547,0.006 23.09,-0.68 34.573,-1.865c9.683,-1 19.328,-2.358 28.924,-3.996c10.279,-1.754 20.501,-3.83 30.665,-6.161c7.539,-1.729 15.046,-3.598 22.521,-5.587c2.326,-0.619 4.649,-1.25 6.969,-1.892c1.455,-0.402 2.911,-0.802 4.36,-1.225c1.161,-0.341 2.322,-0.684 3.481,-1.029l14.999,-4.635l1.85,1.039l17.751,10.305c-10.634,4.648 -21.376,9.11 -32.211,13.339c-0.965,0.387 -1.932,0.771 -2.898,1.154c-4.312,1.704 -8.636,3.374 -12.977,5c-14.27,5.344 -28.713,10.241 -43.337,14.527c-14.741,4.32 -29.671,8.023 -44.771,10.855c-9.557,1.792 -19.182,3.233 -28.855,4.232c-3.632,0.375 -7.269,0.688 -10.912,0.932c-3.1,0.209 -6.203,0.371 -9.309,0.453c-6.018,0.159 -12.044,0.046 -18.054,-0.313c-6.89,-0.412 -13.759,-1.146 -20.586,-2.156c-2.285,-0.339 -4.566,-0.708 -6.842,-1.107c-1.087,-0.19 -2.173,-0.389 -3.258,-0.591c-1.763,-0.327 -3.525,-0.663 -5.284,-1.019c-3.422,-0.694 -6.833,-1.45 -10.229,-2.262c-11.161,-2.667 -22.174,-5.936 -33.039,-9.622c-15.891,-5.391 -31.47,-11.67 -46.837,-18.399c-17.381,-7.611 -34.498,-15.808 -51.562,-24.123l5.037,-2.453c10.18,-4.972 20.35,-9.965 30.554,-14.889c4.751,-2.293 9.508,-4.569 14.279,-6.82c2.316,-1.092 4.634,-2.183 6.958,-3.257l5.343,-2.417Z" style="fill:#ffe955;fill-opacity:0.701961;"/><path d="M1426.38,191.666l6.957,-3.325c8.318,-4.013 16.607,-8.085 24.872,-12.206c4.177,-2.083 8.348,-4.179 12.513,-6.286c1.355,-0.685 2.709,-1.371 4.062,-2.059c0.456,-0.232 0.916,-0.456 1.368,-0.695c8.408,-4.457 16.791,-8.958 25.16,-13.486c6.732,-3.642 13.454,-7.302 20.176,-10.962c-3.577,2.077 -7.155,4.153 -10.733,6.228c-5.426,3.142 -10.856,6.28 -16.294,9.403c-5.867,3.369 -11.744,6.72 -17.631,10.053c-1.751,1.03 -3.503,2.057 -5.255,3.083c-9.149,5.351 -18.328,10.651 -27.549,15.877l-12.07,6.731l-4.708,-1.978l-0.868,-0.378Z" style="fill:#ffe955;fill-opacity:0.701961;"/><path d="M3362.27,154.239c2.079,1.347 4.159,2.693 6.239,4.038c1.443,0.93 2.887,1.86 4.332,2.787c4.61,2.954 9.235,5.886 13.89,8.769c8.854,5.484 17.811,10.803 26.921,15.849c7.839,4.343 15.791,8.486 23.885,12.336c2.73,1.298 5.477,2.56 8.24,3.789l0.514,0.227c0.495,0.263 0.992,0.524 1.488,0.784c0.66,0.345 1.321,0.688 1.983,1.03c3.459,1.776 6.947,3.498 10.472,5.139c2.124,0.988 4.261,1.949 6.412,2.878c0.64,0.276 1.282,0.547 1.924,0.818c2.844,1.201 5.713,2.341 8.608,3.412c3.17,1.172 6.372,2.261 9.607,3.242c4.416,1.339 8.897,2.481 13.437,3.319c4.15,0.767 8.353,1.28 12.574,1.378l0.156,0.005c0.929,-0.012 1.856,-0.036 2.783,-0.088c2.954,-0.166 5.896,-0.532 8.816,-1.002c3.341,-0.538 6.658,-1.218 9.953,-1.986c4.442,-1.036 8.845,-2.233 13.217,-3.532c4.986,-1.481 9.932,-3.095 14.848,-4.795c5.908,-2.044 11.773,-4.213 17.606,-6.462c6.593,-2.541 13.147,-5.185 19.674,-7.891l11.125,-4.725l4.034,2.27c1.493,0.827 2.987,1.652 4.481,2.476c1.229,0.676 2.457,1.352 3.687,2.025l0.83,0.469c6.615,3.729 13.249,7.421 19.912,11.062c18.648,10.193 37.501,20.014 56.605,29.326c13.2,6.434 26.52,12.626 39.973,18.5c-7.924,4.61 -15.81,9.276 -23.69,13.952c-5.622,3.316 -11.24,6.636 -16.862,9.953c-16.673,9.826 -33.371,19.614 -50.313,28.972c-7.517,4.152 -15.083,8.218 -22.718,12.149c-7.261,3.738 -14.586,7.355 -21.994,10.792c-7.322,3.398 -14.726,6.622 -22.23,9.597c-6.95,2.755 -13.986,5.297 -21.116,7.549c-6.656,2.102 -13.395,3.95 -20.209,5.469c-3.761,0.839 -7.544,1.578 -11.347,2.201c-1.317,0.216 -2.637,0.413 -3.959,0.598c-4.332,0.608 -8.686,1.067 -13.05,1.383c-3.855,0.28 -7.719,0.449 -11.584,0.514c-20.261,0.34 -40.501,-2.176 -60.262,-6.552c-3.066,-0.679 -6.121,-1.403 -9.166,-2.17c-3.574,-0.899 -7.133,-1.858 -10.678,-2.866c-5.506,-1.566 -10.975,-3.266 -16.406,-5.075c-4.263,-1.419 -8.503,-2.907 -12.72,-4.457c-2.079,-0.765 -4.152,-1.547 -6.222,-2.338l-0.255,-0.098c-4.884,-2.16 -9.732,-4.396 -14.544,-6.709c-17.072,-8.207 -33.691,-17.332 -49.965,-27.019c-7.747,-4.61 -15.416,-9.351 -23.03,-14.177c-5.85,-3.707 -11.665,-7.468 -17.477,-11.234l81.571,-125.881Z" style="fill:#faca33;fill-opacity:0.701961;"/><path d="M4183.67,220.762l6.205,3.796c12.408,7.393 24.997,14.499 37.895,21.006c9.395,4.74 18.957,9.162 28.723,13.086c4.697,1.887 9.44,3.658 14.233,5.288c1.648,0.561 3.303,1.105 4.963,1.632c0.75,0.238 1.501,0.476 2.256,0.702c5.319,1.599 10.694,3.011 16.121,4.197c6.961,1.521 14.007,2.669 21.1,3.363c1.871,0.183 3.745,0.335 5.621,0.453c1.7,0.108 3.402,0.188 5.104,0.254c3.49,0.137 6.983,0.203 10.476,0.205c11.547,0.007 23.09,-0.679 34.573,-1.865c9.683,-1 19.328,-2.358 28.924,-3.995c10.279,-1.755 20.501,-3.831 30.665,-6.162c7.539,-1.728 15.046,-3.598 22.521,-5.587c2.326,-0.619 4.649,-1.25 6.969,-1.891c1.455,-0.403 2.911,-0.803 4.36,-1.226c1.161,-0.341 2.322,-0.684 3.481,-1.029l14.999,-4.634l1.85,1.038l17.751,10.306c-10.634,4.648 -21.376,9.109 -32.211,13.338c-0.965,0.387 -1.932,0.771 -2.898,1.154c-4.312,1.704 -8.636,3.374 -12.977,5c-14.27,5.345 -28.713,10.241 -43.337,14.527c-14.741,4.32 -29.671,8.024 -44.771,10.855c-9.557,1.792 -19.182,3.233 -28.855,4.232c-3.632,0.375 -7.269,0.688 -10.912,0.933c-3.1,0.208 -6.203,0.37 -9.309,0.452c-6.018,0.159 -12.044,0.046 -18.054,-0.313c-6.89,-0.412 -13.759,-1.146 -20.586,-2.156c-2.285,-0.339 -4.566,-0.708 -6.842,-1.106c-1.087,-0.191 -2.173,-0.39 -3.258,-0.591c-1.763,-0.328 -3.525,-0.663 -5.284,-1.02c-3.422,-0.694 -6.833,-1.45 -10.229,-2.261c-11.161,-2.668 -22.174,-5.937 -33.039,-9.623c-15.891,-5.391 -31.47,-11.67 -46.837,-18.399c-17.381,-7.611 -34.498,-15.807 -51.562,-24.123l5.037,-2.453c10.18,-4.972 20.35,-9.965 30.554,-14.889c4.751,-2.292 9.508,-4.569 14.279,-6.819c2.316,-1.093 4.634,-2.183 6.958,-3.258l5.343,-2.417Z" style="fill:#faca33;fill-opacity:0.701961;"/><path d="M3616.57,191.183c8.686,-3.704 17.331,-7.507 25.969,-11.322c6.703,-2.965 13.402,-5.938 20.102,-8.907l1.163,-0.515c3.611,-1.588 7.223,-3.175 10.837,-4.757c24.218,-10.595 48.531,-20.997 73.225,-30.442c18.647,-7.131 37.511,-13.725 56.671,-19.348c15.25,-4.476 30.692,-8.336 46.316,-11.265c14.178,-2.657 28.512,-4.546 42.917,-5.357c3.185,-0.179 6.373,-0.305 9.562,-0.375c1.593,-0.035 3.186,-0.053 4.78,-0.062c0.637,-0.001 1.275,-0.001 1.912,0c1.434,0.007 2.867,0.022 4.301,0.051c3.842,0.078 7.684,0.242 11.519,0.506c6.22,0.427 12.421,1.118 18.586,2.051c4.99,0.755 9.955,1.669 14.89,2.729c3.668,0.789 7.32,1.658 10.951,2.601c23.264,6.045 45.639,15.135 67.16,25.772c3.29,1.626 6.561,3.289 9.816,4.985c4.335,2.259 8.641,4.576 12.92,6.941c5.609,3.101 11.173,6.284 16.699,9.53c3.943,2.316 7.868,4.662 11.776,7.037c2.38,1.446 4.752,2.904 7.124,4.363c1.252,0.771 2.505,1.54 3.756,2.313c2.58,1.595 5.156,3.198 7.727,4.809l14.225,9.016l-1.073,0.678c-2.536,1.617 -5.07,3.238 -7.604,4.859c-6.038,3.867 -12.072,7.74 -18.113,11.603c-8.418,5.383 -16.854,10.738 -25.347,16.002l-9.948,6.096l-1.929,-0.879c-3.618,-1.637 -7.247,-3.249 -10.888,-4.835c-6.597,-2.874 -13.234,-5.658 -19.924,-8.312c-9.067,-3.597 -18.233,-6.957 -27.521,-9.942c-9.099,-2.925 -18.32,-5.492 -27.665,-7.51c-8.346,-1.803 -16.795,-3.167 -25.305,-3.902c-7.31,-0.631 -14.666,-0.795 -21.992,-0.357c-2.941,0.176 -5.877,0.441 -8.803,0.784c-2.106,0.247 -4.207,0.527 -6.304,0.847c-6.15,0.938 -12.251,2.184 -18.294,3.663c-6.721,1.645 -13.369,3.579 -19.946,5.728c-7.014,2.292 -13.946,4.829 -20.806,7.548c-10.079,3.995 -20.002,8.382 -29.799,13.026c-10.623,5.035 -21.101,10.373 -31.476,15.902c-9.629,5.132 -19.17,10.428 -28.615,15.824c-11.89,-3.788 -23.705,-7.836 -35.445,-12.09c-15.491,-5.615 -30.851,-11.588 -46.097,-17.839c-17.795,-7.297 -35.433,-14.974 -52.943,-22.933l-0.695,-0.327l-8.372,-3.988Z" style="fill:#faca33;fill-opacity:0.701961;"/><path d="M4626.38,191.199l6.957,-3.326c8.318,-4.013 16.607,-8.085 24.872,-12.206c4.177,-2.083 8.348,-4.179 12.513,-6.286c1.355,-0.685 2.709,-1.371 4.062,-2.059c0.456,-0.231 0.916,-0.456 1.368,-0.695c8.408,-4.456 16.791,-8.958 25.16,-13.486c6.732,-3.641 13.454,-7.301 20.176,-10.962c-3.577,2.077 -7.155,4.153 -10.733,6.228c-5.426,3.143 -10.856,6.28 -16.294,9.403c-5.867,3.369 -11.744,6.72 -17.631,10.053c-1.751,1.03 -3.503,2.057 -5.255,3.083c-9.149,5.351 -18.328,10.651 -27.549,15.877l-12.07,6.731l-4.708,-1.978l-0.868,-0.377Z" style="fill:#faca33;fill-opacity:0.701961;"/><path d="M1427.25,192.044l4.708,1.978l-11.484,6.405l-0.676,0.37c-1.282,0.724 -2.564,1.446 -3.847,2.168c-1.518,0.851 -3.038,1.702 -4.558,2.551c-6.701,3.733 -13.423,7.427 -20.175,11.067c-18.815,10.144 -37.845,19.897 -57.135,29.108c-10.454,4.992 -20.984,9.826 -31.623,14.475l-17.751,-10.305l-1.85,-1.039l0.681,-0.21c18.084,-5.781 35.977,-12.147 53.705,-18.939c19.144,-7.334 38.096,-15.167 56.887,-23.365c6.946,-3.031 13.868,-6.115 20.773,-9.237l1.57,-0.712l0.866,-0.393c1.264,-0.595 2.528,-1.193 3.792,-1.79l5.249,-2.51l0.868,0.378Z" style="fill:#ffe955;fill-opacity:0.701961;"/><path d="M1267.46,240.18c-7.199,-3.974 -14.443,-7.868 -21.741,-11.656c-9.316,-4.835 -18.723,-9.498 -28.252,-13.899c-9.023,-4.167 -18.155,-8.101 -27.423,-11.692c-7.278,-2.82 -14.64,-5.428 -22.094,-7.746c-6.728,-2.091 -13.533,-3.946 -20.41,-5.479c-4.93,-1.1 -9.897,-2.033 -14.895,-2.76c-1.675,-0.244 -3.354,-0.461 -5.036,-0.658c-1.937,-0.227 -3.878,-0.418 -5.822,-0.573c-1.093,-0.088 -2.186,-0.166 -3.28,-0.229c-3.34,-0.192 -6.687,-0.259 -10.033,-0.215c-6.729,0.089 -13.448,0.632 -20.117,1.524c-7.533,1.007 -15.004,2.46 -22.394,4.232c-8.198,1.966 -16.3,4.327 -24.309,6.957c-8.798,2.889 -17.487,6.105 -26.089,9.532c-8.008,3.191 -15.941,6.565 -23.822,10.057l-8.08,3.655c-11.913,-7.153 -23.66,-14.598 -35.376,-22.085c-7.053,-4.512 -14.098,-9.035 -21.151,-13.547l-5.668,-3.593l15.796,-9.981c2.059,-1.286 4.12,-2.568 6.186,-3.844c1.25,-0.773 2.503,-1.542 3.755,-2.313c2.372,-1.459 4.744,-2.917 7.124,-4.363c3.908,-2.375 7.833,-4.721 11.776,-7.037c5.526,-3.246 11.09,-6.429 16.699,-9.53c4.279,-2.365 8.585,-4.682 12.92,-6.941c3.255,-1.696 6.527,-3.359 9.816,-4.985c21.521,-10.637 43.896,-19.727 67.16,-25.772c3.632,-0.943 7.283,-1.812 10.951,-2.601c4.78,-1.027 9.588,-1.917 14.42,-2.658c6.319,-0.969 12.678,-1.684 19.057,-2.122c3.834,-0.264 7.676,-0.428 11.518,-0.506c1.434,-0.03 2.867,-0.044 4.301,-0.052c0.637,-0.001 1.275,0 1.912,0.001c1.913,0.011 3.825,0.036 5.737,0.084c3.827,0.097 7.652,0.276 11.472,0.529c15.051,0.996 30.013,3.146 44.8,6.101c17.53,3.504 34.823,8.137 51.881,13.472c11.564,3.618 23.024,7.563 34.398,11.738c12.573,4.615 25.041,9.513 37.435,14.586c13.091,5.358 26.099,10.913 39.07,16.552c4.62,2.009 9.235,4.028 13.848,6.053c1.889,0.83 3.779,1.658 5.667,2.491c2.646,1.166 5.286,2.342 7.929,3.514c3.343,1.482 6.685,2.964 10.028,4.444c3.291,1.456 6.582,2.91 9.875,4.362l20.244,8.817l20.356,8.553c6.2,2.535 12.425,5.008 18.688,7.381c5.529,2.095 11.087,4.111 16.686,6.008c4.643,1.572 9.313,3.061 14.021,4.426c4.131,1.198 8.292,2.301 12.487,3.253c3.102,0.704 6.224,1.327 9.366,1.82c2.779,0.437 5.577,0.776 8.385,0.934c0.927,0.052 1.855,0.076 2.783,0.088c0.399,-0.014 0.799,-0.022 1.198,-0.037c4.355,-0.174 8.686,-0.768 12.958,-1.62c4.73,-0.942 9.394,-2.199 13.989,-3.66c5.505,-1.749 10.916,-3.792 16.237,-6.039c0.642,-0.271 1.284,-0.542 1.924,-0.818c2.589,-1.118 5.158,-2.283 7.708,-3.486c4.21,-1.987 8.366,-4.085 12.483,-6.258l0.165,-0.087c0.628,-0.278 1.256,-0.558 1.883,-0.839c0.687,-0.309 1.373,-0.62 2.058,-0.933c2.766,-1.268 5.518,-2.567 8.252,-3.902c8.74,-4.267 17.319,-8.861 25.773,-13.669c6.03,-3.43 11.999,-6.969 17.914,-10.593c4.766,-2.92 9.503,-5.888 14.217,-8.891c4.656,-2.966 9.29,-5.967 13.923,-8.969l81.571,125.882c-5.812,3.766 -11.627,7.527 -17.477,11.234c-7.614,4.826 -15.283,9.566 -23.029,14.177c-16.275,9.686 -32.894,18.812 -49.966,27.019c-4.812,2.313 -9.66,4.549 -14.544,6.708c-0.772,0.298 -1.545,0.591 -2.319,0.885c-2.08,0.785 -4.163,1.559 -6.253,2.316c-4.237,1.534 -8.497,3.004 -12.78,4.404c-3.625,1.185 -7.267,2.32 -10.925,3.399c-1.468,0.433 -2.939,0.855 -4.411,1.271c-4.692,1.325 -9.412,2.551 -14.156,3.675c-3.072,0.727 -6.154,1.41 -9.245,2.046c-18.904,3.888 -38.225,6.018 -57.539,5.52c-2.576,-0.067 -5.151,-0.18 -7.723,-0.341c-3.476,-0.219 -6.946,-0.527 -10.406,-0.928c-2.856,-0.331 -5.707,-0.721 -8.545,-1.185c-4.961,-0.813 -9.89,-1.823 -14.778,-2.995c-7.888,-1.891 -15.671,-4.209 -23.344,-6.838c-8.158,-2.795 -16.194,-5.943 -24.122,-9.333c-8.526,-3.647 -16.931,-7.575 -25.241,-11.689c-9.244,-4.575 -18.374,-9.38 -27.428,-14.321c-9.484,-5.176 -18.885,-10.502 -28.243,-15.902c-8.953,-5.166 -17.867,-10.401 -26.771,-15.652c-4.21,-2.482 -8.418,-4.968 -12.626,-7.453c-1.412,-0.833 -2.825,-1.664 -4.236,-2.5c-3.322,-1.967 -6.641,-3.937 -9.964,-5.902c-2.102,-1.241 -4.204,-2.481 -6.308,-3.72l-7.436,-4.317c0.665,-0.29 0.665,-0.29 0,0l-17.751,-10.305l-1.85,-1.039l-15.392,-8.642Z" style="fill:#8dc22b;fill-opacity:0.701961;"/><path d="M416.569,191.65l8.372,3.989l0.695,0.327c17.51,7.958 35.148,15.636 52.943,22.932c15.246,6.252 30.606,12.225 46.097,17.84c11.74,4.254 23.555,8.302 35.445,12.09l-3.423,1.931l-16.199,9.394c-13.453,-5.874 -26.773,-12.065 -39.973,-18.499c-19.104,-9.312 -37.957,-19.134 -56.605,-29.326c-6.663,-3.641 -13.297,-7.334 -19.912,-11.062l-0.83,-0.469c-1.23,-0.674 -2.458,-1.349 -3.687,-2.025c-1.494,-0.824 -2.988,-1.65 -4.481,-2.476l-4.034,-2.27l5.592,-2.376Z" style="fill:#ffe955;fill-opacity:0.701961;"/><path d="M539.239,259.602c-13.025,-5.71 -25.925,-11.715 -38.713,-17.948c-19.104,-9.312 -37.957,-19.134 -56.605,-29.326c-6.663,-3.641 -13.297,-7.334 -19.912,-11.062l-0.83,-0.469c-1.23,-0.674 -2.458,-1.349 -3.687,-2.025c-1.494,-0.824 -2.988,-1.65 -4.481,-2.476l-4.034,-2.27l-17.715,-9.971c-9.066,-5.175 -18.092,-10.419 -27.091,-15.709c-0.43,-0.253 -0.869,-0.492 -1.303,-0.738c-1.292,-0.732 -2.583,-1.465 -3.873,-2.198c-5.769,-3.283 -11.53,-6.58 -17.281,-9.893c-7.419,-4.274 -14.823,-8.571 -22.226,-12.87c3.632,1.978 7.264,3.956 10.898,5.931c11.453,6.221 22.921,12.413 34.437,18.517c0.452,0.239 0.912,0.463 1.368,0.695c0.449,0.228 0.898,0.456 1.348,0.684c1.359,0.69 2.719,1.378 4.08,2.066c4.183,2.112 8.372,4.214 12.567,6.302c8.294,4.129 16.613,8.208 24.961,12.226l13.794,6.571l0.695,0.327c17.51,7.958 35.148,15.636 52.943,22.932c15.246,6.252 30.606,12.225 46.097,17.84c11.74,4.254 23.555,8.302 35.445,12.09l0.187,0.062c4.056,1.292 8.121,2.554 12.197,3.783c1.449,0.438 2.9,0.871 4.353,1.301c0.766,0.226 1.532,0.454 2.3,0.675c0.684,0.198 1.37,0.386 2.056,0.578c1.452,0.405 2.905,0.806 4.359,1.203c4.625,1.261 9.261,2.477 13.91,3.645c13.319,3.343 26.741,6.287 40.262,8.69c9.634,1.711 19.317,3.148 29.042,4.233c8.997,1.003 18.029,1.707 27.077,2.025c6.083,0.214 12.173,0.253 18.258,0.083c1.724,-0.048 3.448,-0.112 5.172,-0.195c1.083,-0.052 2.166,-0.11 3.248,-0.18c2.346,-0.154 4.688,-0.359 7.026,-0.612c9.388,-1.018 18.681,-2.823 27.812,-5.222c2.563,-0.673 5.114,-1.394 7.652,-2.157c0.992,-0.298 1.979,-0.612 2.965,-0.928c1.66,-0.532 3.315,-1.082 4.964,-1.648c5.28,-1.813 10.501,-3.797 15.665,-5.916c12.802,-5.255 25.253,-11.338 37.447,-17.871c11.29,-6.05 22.366,-12.489 33.315,-19.134l4.348,1.983c0.525,0.242 1.049,0.484 1.572,0.727c4.75,2.213 9.488,4.451 14.216,6.713c6.94,3.32 13.858,6.685 20.772,10.058c6.463,3.156 12.923,6.317 19.387,9.47l1.814,0.872l-3.084,1.502c-17.405,8.446 -34.881,16.763 -52.648,24.425c-14.293,6.163 -28.776,11.908 -43.528,16.88c-10.869,3.663 -21.884,6.904 -33.048,9.54c-3.398,0.802 -6.809,1.547 -10.232,2.231c-1.475,0.294 -2.952,0.573 -4.43,0.847c-1.085,0.202 -2.171,0.401 -3.258,0.591c-1.992,0.349 -3.987,0.676 -5.986,0.978c-6.258,0.948 -12.552,1.665 -18.865,2.116c-6.721,0.479 -13.465,0.656 -20.201,0.493c-3.25,-0.079 -6.496,-0.246 -9.739,-0.464c-4.206,-0.282 -8.406,-0.655 -12.597,-1.111c-9.683,-1.052 -19.316,-2.541 -28.88,-4.378c-16.886,-3.243 -33.557,-7.561 -49.989,-12.61c-9.615,-2.955 -19.151,-6.163 -28.611,-9.579c-7.943,-2.868 -15.834,-5.881 -23.673,-9.022c-1.052,-0.411 -2.104,-0.824 -3.155,-1.238c-5.49,-2.172 -10.959,-4.398 -16.403,-6.682l-12.671,-5.432l-1.26,-0.551Z" style="fill:#8dc22b;fill-opacity:0.701961;"/><path d="M921.473,182.005l5.668,3.593c7.053,4.512 14.098,9.035 21.151,13.547c11.716,7.487 23.463,14.932 35.376,22.085l-5.343,2.417c-2.324,1.074 -4.642,2.165 -6.958,3.257c-4.771,2.251 -9.528,4.527 -14.279,6.82c-10.204,4.924 -20.374,9.917 -30.554,14.889l-5.037,2.453l-1.814,-0.872c-6.464,-3.153 -12.924,-6.314 -19.387,-9.47c-6.914,-3.373 -13.832,-6.738 -20.772,-10.058c-4.728,-2.262 -9.466,-4.5 -14.216,-6.713c-0.523,-0.243 -1.047,-0.485 -1.572,-0.727l-4.348,-1.983l9.948,-6.096c8.493,-5.264 16.929,-10.619 25.347,-16.002c6.041,-3.863 12.075,-7.736 18.113,-11.603c2.534,-1.621 5.068,-3.242 7.604,-4.859l1.073,-0.678Z" style="fill:#8dc22b;fill-opacity:0.701961;"/><path d="M921.473,182.005l5.668,3.593c7.053,4.512 14.098,9.035 21.151,13.547c11.716,7.487 23.463,14.932 35.376,22.085l-5.343,2.417c-2.324,1.074 -4.642,2.165 -6.958,3.257c-4.771,2.251 -9.528,4.527 -14.279,6.82c-10.204,4.924 -20.374,9.917 -30.554,14.889l-5.037,2.453l-1.814,-0.872c-6.464,-3.153 -12.924,-6.314 -19.387,-9.47c-6.914,-3.373 -13.832,-6.738 -20.772,-10.058c-4.728,-2.262 -9.466,-4.5 -14.216,-6.713c-0.523,-0.243 -1.047,-0.485 -1.572,-0.727l-4.348,-1.983l9.948,-6.096c8.493,-5.264 16.929,-10.619 25.347,-16.002c6.041,-3.863 12.075,-7.736 18.113,-11.603c2.534,-1.621 5.068,-3.242 7.604,-4.859l1.073,-0.678Z" style="fill:#ffe955;fill-opacity:0.701961;"/><path d="M4059.39,220.775l4.348,1.983c0.525,0.242 1.049,0.484 1.572,0.727c4.75,2.214 9.488,4.452 14.216,6.713c6.94,3.32 13.858,6.685 20.772,10.058c6.463,3.156 12.923,6.318 19.387,9.47l1.814,0.872l-3.084,1.502c-17.405,8.447 -34.881,16.763 -52.648,24.425c-14.293,6.163 -28.776,11.908 -43.528,16.88c-10.869,3.663 -21.884,6.905 -33.048,9.54c-3.398,0.802 -6.809,1.548 -10.232,2.231c-1.475,0.294 -2.952,0.573 -4.43,0.848c-1.085,0.201 -2.171,0.4 -3.258,0.591c-1.992,0.348 -3.987,0.675 -5.986,0.978c-6.258,0.947 -12.552,1.664 -18.865,2.115c-6.721,0.479 -13.465,0.657 -20.201,0.493c-3.25,-0.079 -6.496,-0.246 -9.739,-0.463c-4.206,-0.283 -8.406,-0.656 -12.597,-1.111c-9.683,-1.052 -19.316,-2.542 -28.88,-4.379c-16.886,-3.242 -33.557,-7.561 -49.989,-12.61c-9.615,-2.954 -19.151,-6.163 -28.611,-9.579c-7.943,-2.868 -15.834,-5.881 -23.673,-9.022c-1.052,-0.411 -2.104,-0.824 -3.155,-1.238c-5.49,-2.172 -10.959,-4.398 -16.403,-6.682l-12.671,-5.431l16.199,-9.395l3.423,-1.931l0.187,0.062c4.056,1.292 8.121,2.554 12.197,3.784c1.449,0.437 2.9,0.871 4.353,1.3c0.766,0.226 1.532,0.454 2.3,0.676c0.684,0.197 1.37,0.385 2.056,0.577c1.452,0.405 2.905,0.806 4.359,1.203c4.625,1.261 9.261,2.478 13.91,3.645c13.319,3.343 26.741,6.287 40.262,8.69c9.634,1.712 19.317,3.148 29.042,4.233c8.997,1.003 18.029,1.707 27.077,2.025c6.083,0.214 12.173,0.253 18.258,0.084c1.724,-0.048 3.448,-0.113 5.172,-0.196c1.083,-0.052 2.166,-0.109 3.248,-0.18c2.346,-0.154 4.688,-0.359 7.026,-0.612c9.388,-1.018 18.681,-2.823 27.812,-5.222c2.563,-0.673 5.114,-1.394 7.652,-2.157c0.992,-0.298 1.979,-0.612 2.965,-0.928c1.66,-0.532 3.315,-1.082 4.964,-1.648c5.28,-1.813 10.501,-3.796 15.665,-5.916c12.802,-5.255 25.253,-11.337 37.447,-17.871c11.29,-6.05 22.366,-12.489 33.315,-19.134Z" style="fill:#ffe955;fill-opacity:0.701961;"/><path d="M4121.47,181.537l15.796,-9.981c2.059,-1.286 4.12,-2.568 6.186,-3.844c1.25,-0.773 2.503,-1.542 3.755,-2.313c2.372,-1.459 4.744,-2.917 7.124,-4.363c3.908,-2.375 7.833,-4.721 11.776,-7.037c5.526,-3.246 11.09,-6.429 16.699,-9.53c4.279,-2.365 8.585,-4.682 12.92,-6.941c3.255,-1.696 6.527,-3.359 9.816,-4.985c21.521,-10.637 43.896,-19.727 67.16,-25.772c3.632,-0.943 7.283,-1.812 10.951,-2.601c4.78,-1.026 9.588,-1.916 14.42,-2.658c6.319,-0.969 12.678,-1.684 19.057,-2.122c3.834,-0.264 7.676,-0.428 11.518,-0.506c1.434,-0.029 2.867,-0.044 4.301,-0.051c0.637,-0.001 1.275,-0.001 1.912,0c1.913,0.011 3.825,0.036 5.737,0.084c3.827,0.098 7.652,0.276 11.472,0.529c15.051,0.996 30.013,3.146 44.8,6.101c17.53,3.504 34.823,8.137 51.881,13.473c11.564,3.617 23.024,7.562 34.398,11.737c12.573,4.615 25.041,9.513 37.435,14.586c13.091,5.358 26.099,10.913 39.07,16.552c4.62,2.009 9.235,4.028 13.848,6.053c1.889,0.83 3.779,1.659 5.667,2.491c2.646,1.166 5.286,2.343 7.929,3.514c3.343,1.482 6.685,2.964 10.028,4.444c3.291,1.456 6.582,2.91 9.875,4.362l19.376,8.44l-5.249,2.509c-1.264,0.598 -2.528,1.195 -3.792,1.79l-0.866,0.394l-1.57,0.711c-6.905,3.122 -13.827,6.207 -20.773,9.237c-18.791,8.198 -37.743,16.031 -56.887,23.366c-17.728,6.791 -35.621,13.157 -53.705,18.938l-0.681,0.211l-15.392,-8.643c-7.199,-3.974 -14.443,-7.868 -21.741,-11.656c-9.316,-4.835 -18.723,-9.497 -28.252,-13.898c-9.023,-4.167 -18.155,-8.102 -27.423,-11.693c-7.278,-2.82 -14.64,-5.428 -22.094,-7.745c-6.728,-2.092 -13.533,-3.947 -20.41,-5.48c-4.93,-1.099 -9.897,-2.033 -14.895,-2.76c-1.675,-0.244 -3.354,-0.461 -5.036,-0.658c-1.937,-0.227 -3.878,-0.417 -5.822,-0.573c-1.093,-0.088 -2.186,-0.166 -3.28,-0.228c-3.34,-0.193 -6.687,-0.26 -10.033,-0.216c-6.729,0.09 -13.448,0.632 -20.117,1.524c-7.533,1.008 -15.004,2.46 -22.394,4.232c-8.198,1.966 -16.3,4.327 -24.309,6.957c-8.798,2.889 -17.487,6.105 -26.089,9.533c-8.008,3.19 -15.941,6.565 -23.822,10.056l-8.08,3.655c-11.913,-7.153 -23.66,-14.597 -35.376,-22.085c-7.053,-4.511 -14.098,-9.035 -21.151,-13.546l-5.668,-3.594Z" style="fill:#ffe955;fill-opacity:0.701961;"/><path d="M3610.98,193.558l-17.715,-9.97c-9.066,-5.176 -18.092,-10.419 -27.091,-15.709c-0.43,-0.254 -0.869,-0.493 -1.303,-0.739c-1.292,-0.732 -2.583,-1.464 -3.873,-2.198c-5.769,-3.283 -11.53,-6.58 -17.281,-9.893c-7.419,-4.273 -14.823,-8.571 -22.226,-12.87c3.632,1.978 7.264,3.956 10.898,5.932c11.453,6.221 22.921,12.412 34.437,18.516c0.452,0.239 0.912,0.464 1.368,0.695c0.449,0.228 0.898,0.456 1.348,0.684c1.359,0.69 2.719,1.379 4.08,2.066c4.183,2.113 8.372,4.214 12.567,6.302c8.294,4.129 16.613,8.208 24.961,12.226l5.422,2.583l-5.592,2.375Z" style="fill:#ffe955;fill-opacity:0.701961;"/><path d="M4627.25,191.576l4.708,1.978l-11.484,6.405l-0.676,0.37c-1.282,0.724 -2.564,1.446 -3.847,2.168c-1.518,0.852 -3.038,1.702 -4.558,2.551c-6.701,3.733 -13.423,7.427 -20.175,11.067c-18.815,10.144 -37.845,19.897 -57.135,29.109c-10.454,4.991 -20.984,9.825 -31.623,14.475l-17.751,-10.306l-1.85,-1.038l0.681,-0.211c18.084,-5.781 35.977,-12.147 53.705,-18.938c19.144,-7.335 38.096,-15.168 56.887,-23.366c6.946,-3.03 13.868,-6.115 20.773,-9.237l1.57,-0.711l0.866,-0.394c1.264,-0.595 2.528,-1.192 3.792,-1.79l5.249,-2.509l0.868,0.377Z" style="fill:#faca33;fill-opacity:0.701961;"/><path d="M4627.25,191.576l4.708,1.978l-11.484,6.405l-0.676,0.37c-1.282,0.724 -2.564,1.446 -3.847,2.168c-1.518,0.852 -3.038,1.702 -4.558,2.551c-6.701,3.733 -13.423,7.427 -20.175,11.067c-18.815,10.144 -37.845,19.897 -57.135,29.109c-10.454,4.991 -20.984,9.825 -31.623,14.475l-17.751,-10.306l-1.85,-1.038l0.681,-0.211c18.084,-5.781 35.977,-12.147 53.705,-18.938c19.144,-7.335 38.096,-15.168 56.887,-23.366c6.946,-3.03 13.868,-6.115 20.773,-9.237l1.57,-0.711l0.866,-0.394c1.264,-0.595 2.528,-1.192 3.792,-1.79l5.249,-2.509l0.868,0.377Z" style="fill:#ffe955;fill-opacity:0.701961;"/><path d="M3616.57,191.183l8.372,3.988l0.695,0.327c17.51,7.959 35.148,15.636 52.943,22.933c15.246,6.251 30.606,12.224 46.097,17.839c11.74,4.254 23.555,8.302 35.445,12.09l-3.423,1.931l-16.199,9.395c-13.453,-5.874 -26.773,-12.066 -39.973,-18.5c-19.104,-9.312 -37.957,-19.133 -56.605,-29.326c-6.663,-3.641 -13.297,-7.333 -19.912,-11.062l-0.83,-0.469c-1.23,-0.673 -2.458,-1.349 -3.687,-2.025c-1.494,-0.824 -2.988,-1.649 -4.481,-2.476l-4.034,-2.27l5.592,-2.375Z" style="fill:#faca33;fill-opacity:0.701961;"/><path d="M3616.57,191.183l8.372,3.988l0.695,0.327c17.51,7.959 35.148,15.636 52.943,22.933c15.246,6.251 30.606,12.224 46.097,17.839c11.74,4.254 23.555,8.302 35.445,12.09l-3.423,1.931l-16.199,9.395c-13.453,-5.874 -26.773,-12.066 -39.973,-18.5c-19.104,-9.312 -37.957,-19.133 -56.605,-29.326c-6.663,-3.641 -13.297,-7.333 -19.912,-11.062l-0.83,-0.469c-1.23,-0.673 -2.458,-1.349 -3.687,-2.025c-1.494,-0.824 -2.988,-1.649 -4.481,-2.476l-4.034,-2.27l5.592,-2.375Z" style="fill:#ffe955;fill-opacity:0.701961;"/><path d="M4121.47,181.537l5.668,3.594c7.053,4.511 14.098,9.035 21.151,13.546c11.716,7.488 23.463,14.932 35.376,22.085l-5.343,2.417c-2.324,1.075 -4.642,2.165 -6.958,3.258c-4.771,2.25 -9.528,4.527 -14.279,6.819c-10.204,4.924 -20.374,9.917 -30.554,14.889l-5.037,2.453l-1.814,-0.872c-6.464,-3.152 -12.924,-6.314 -19.387,-9.47c-6.914,-3.373 -13.832,-6.738 -20.772,-10.058c-4.728,-2.261 -9.466,-4.499 -14.216,-6.713c-0.523,-0.243 -1.047,-0.485 -1.572,-0.727l-4.348,-1.983l9.948,-6.096c8.493,-5.264 16.929,-10.619 25.347,-16.002c6.041,-3.863 12.075,-7.736 18.113,-11.603c2.534,-1.621 5.068,-3.242 7.604,-4.859l1.073,-0.678Z" style="fill:#ffe955;fill-opacity:0.701961;"/><path d="M4121.47,181.537l5.668,3.594c7.053,4.511 14.098,9.035 21.151,13.546c11.716,7.488 23.463,14.932 35.376,22.085l-5.343,2.417c-2.324,1.075 -4.642,2.165 -6.958,3.258c-4.771,2.25 -9.528,4.527 -14.279,6.819c-10.204,4.924 -20.374,9.917 -30.554,14.889l-5.037,2.453l-1.814,-0.872c-6.464,-3.152 -12.924,-6.314 -19.387,-9.47c-6.914,-3.373 -13.832,-6.738 -20.772,-10.058c-4.728,-2.261 -9.466,-4.499 -14.216,-6.713c-0.523,-0.243 -1.047,-0.485 -1.572,-0.727l-4.348,-1.983l9.948,-6.096c8.493,-5.264 16.929,-10.619 25.347,-16.002c6.041,-3.863 12.075,-7.736 18.113,-11.603c2.534,-1.621 5.068,-3.242 7.604,-4.859l1.073,-0.678Z" style="fill:#faca33;fill-opacity:0.701961;"/><path d="M4957.91,282.943c-4.362,2.82 -8.73,5.631 -13.117,8.411c-7.614,4.826 -15.283,9.567 -23.029,14.177c-16.275,9.687 -32.894,18.812 -49.966,27.019c-4.812,2.313 -9.66,4.549 -14.544,6.709c-0.772,0.297 -1.545,0.591 -2.319,0.884c-2.08,0.785 -4.163,1.559 -6.253,2.316c-4.237,1.534 -8.497,3.004 -12.78,4.405c-3.625,1.185 -7.267,2.319 -10.925,3.398c-1.468,0.433 -2.939,0.855 -4.411,1.271c-4.692,1.325 -9.412,2.552 -14.156,3.675c-3.072,0.727 -6.154,1.41 -9.245,2.046c-18.904,3.888 -38.225,6.018 -57.539,5.52c-2.576,-0.066 -5.151,-0.179 -7.723,-0.341c-3.476,-0.219 -6.946,-0.527 -10.406,-0.928c-2.856,-0.331 -5.707,-0.72 -8.545,-1.185c-4.961,-0.812 -9.89,-1.823 -14.778,-2.995c-7.888,-1.891 -15.671,-4.209 -23.344,-6.838c-8.158,-2.795 -16.194,-5.942 -24.122,-9.333c-8.526,-3.647 -16.931,-7.575 -25.241,-11.688c-9.244,-4.576 -18.374,-9.381 -27.428,-14.322c-9.484,-5.176 -18.885,-10.502 -28.243,-15.902c-8.953,-5.166 -17.867,-10.401 -26.771,-15.651c-4.21,-2.483 -8.418,-4.969 -12.626,-7.454c-1.412,-0.833 -2.825,-1.664 -4.236,-2.499c-3.322,-1.967 -6.641,-3.938 -9.964,-5.903c-2.102,-1.241 -4.204,-2.481 -6.308,-3.72l-7.436,-4.316c10.639,-4.65 21.169,-9.484 31.623,-14.475c19.29,-9.212 38.32,-18.965 57.135,-29.109c6.752,-3.64 13.474,-7.334 20.175,-11.067c1.52,-0.849 3.04,-1.699 4.558,-2.551c1.283,-0.722 2.565,-1.444 3.847,-2.168l0.676,-0.37l11.484,-6.405l15.648,6.575c6.2,2.535 12.425,5.009 18.688,7.381c5.529,2.095 11.087,4.112 16.686,6.008c4.643,1.572 9.313,3.062 14.021,4.426c4.131,1.198 8.292,2.301 12.487,3.253c3.102,0.704 6.224,1.327 9.366,1.82c2.779,0.437 5.577,0.777 8.385,0.934c0.927,0.052 1.855,0.076 2.783,0.088c0.399,-0.014 0.799,-0.022 1.198,-0.037c4.355,-0.174 8.686,-0.768 12.958,-1.619c4.73,-0.943 9.394,-2.2 13.989,-3.66c5.505,-1.75 10.916,-3.793 16.237,-6.04c0.642,-0.271 1.284,-0.542 1.924,-0.818c2.589,-1.118 5.158,-2.282 7.708,-3.486c4.21,-1.987 8.366,-4.084 12.483,-6.257l0.165,-0.088c0.628,-0.278 1.256,-0.558 1.883,-0.839c0.687,-0.309 1.373,-0.62 2.058,-0.932c2.766,-1.269 5.518,-2.568 8.252,-3.903c8.74,-4.267 17.319,-8.861 25.773,-13.669c6.03,-3.43 11.999,-6.969 17.914,-10.593c4.766,-2.92 9.503,-5.887 14.217,-8.891c4.656,-2.966 9.29,-5.966 13.923,-8.968l1.092,-0.707c5.466,-3.532 11.061,-7.072 16.545,-10.548c7.614,-4.826 15.283,-9.566 23.029,-14.177c16.274,-9.686 32.894,-18.811 49.966,-27.018c4.812,-2.313 9.66,-4.55 14.543,-6.709l0.256,-0.098c1.723,-0.659 3.449,-1.312 5.179,-1.953c3.148,-1.166 6.309,-2.298 9.482,-3.392c5.383,-1.856 10.802,-3.606 16.257,-5.233c1.834,-0.548 3.673,-1.078 5.515,-1.599c7.538,-2.128 15.149,-4.007 22.819,-5.6c12.705,-2.639 25.587,-4.484 38.543,-5.278c2.921,-0.178 5.846,-0.304 8.772,-0.372c1.476,-0.035 2.952,-0.053 4.429,-0.06c0.848,-0.002 1.696,0 2.544,0.005c1.491,0.014 2.982,0.039 4.473,0.082c2.795,0.08 5.588,0.216 8.377,0.409c4.14,0.287 8.272,0.702 12.386,1.25c1.76,0.235 3.518,0.491 5.271,0.778c1.468,0.24 2.933,0.499 4.395,0.773c13.433,2.517 26.586,6.394 39.417,11.072c7.024,2.561 13.958,5.366 20.813,8.348c7.176,3.121 14.267,6.436 21.29,9.887c13.533,6.649 26.817,13.797 39.97,21.166c14.798,8.29 29.43,16.871 44.042,25.483c5.621,3.316 11.24,6.637 16.862,9.953c10.646,6.316 21.302,12.616 32.016,18.781l7.872,4.566c10.599,6.063 21.263,12.012 32.039,17.755c10.375,5.528 20.853,10.867 31.476,15.902c9.797,4.643 19.719,9.03 29.799,13.026c6.859,2.719 13.792,5.256 20.806,7.548c6.577,2.149 13.225,4.083 19.946,5.728c6.042,1.479 12.144,2.724 18.294,3.663c2.096,0.32 4.198,0.599 6.304,0.846c2.926,0.343 5.862,0.609 8.802,0.785c7.327,0.437 14.683,0.273 21.993,-0.358c8.51,-0.735 16.959,-2.099 25.305,-3.901c9.345,-2.018 18.566,-4.585 27.665,-7.51c9.288,-2.985 18.453,-6.345 27.521,-9.943c6.689,-2.653 13.327,-5.438 19.924,-8.312c3.641,-1.586 7.27,-3.197 10.888,-4.834c2.095,-0.948 4.187,-1.904 6.277,-2.863c0.524,-0.241 1.048,-0.483 1.572,-0.726l12.949,-6.115c10.495,6.259 20.872,12.686 31.229,19.141c7.11,4.438 14.213,8.887 21.324,13.323l7.666,4.745l-11.335,7.26c-6.616,4.227 -13.24,8.442 -19.894,12.61c-2.571,1.61 -5.146,3.214 -7.727,4.809c-1.25,0.773 -2.503,1.542 -3.755,2.312c-1.337,0.823 -2.673,1.647 -4.012,2.466c-3.117,1.907 -6.243,3.799 -9.38,5.672c-14.944,8.924 -30.145,17.44 -45.767,25.125c-14.322,7.045 -29.004,13.39 -44.092,18.612c-10.573,3.66 -21.344,6.764 -32.276,9.155c-11.17,2.443 -22.506,4.137 -33.913,4.946c-4.796,0.34 -9.604,0.528 -14.411,0.576c-3.18,0.032 -6.361,0.011 -9.54,-0.07c-7.022,-0.178 -14.036,-0.629 -21.027,-1.314c-9.583,-0.939 -19.121,-2.317 -28.594,-4.044c-10.505,-1.916 -20.93,-4.261 -31.268,-6.933c-10.737,-2.775 -21.382,-5.903 -31.94,-9.293c-11.227,-3.605 -22.358,-7.507 -33.409,-11.618c-27.543,-10.246 -54.58,-21.787 -81.497,-33.562c-3.613,-1.583 -7.225,-3.169 -10.837,-4.757l-1.162,-0.515c-6.7,-2.97 -13.4,-5.942 -20.102,-8.907c-8.929,-3.944 -17.865,-7.875 -26.864,-11.703l-1.801,-0.764l-14.021,-5.956c-6.528,-2.705 -13.081,-5.349 -19.674,-7.891c-5.833,-2.249 -11.698,-4.418 -17.606,-6.462c-4.916,-1.7 -9.862,-3.314 -14.848,-4.795c-4.372,-1.298 -8.776,-2.496 -13.218,-3.531c-3.294,-0.769 -6.612,-1.449 -9.952,-1.986c-2.92,-0.47 -5.862,-0.837 -8.817,-1.002c-0.927,-0.052 -1.854,-0.077 -2.782,-0.088l-0.156,0.005c-4.221,0.098 -8.425,0.611 -12.574,1.377c-4.54,0.839 -9.021,1.981 -13.438,3.32c-3.235,0.981 -6.436,2.069 -9.607,3.242c-2.895,1.07 -5.764,2.21 -8.607,3.411c-0.642,0.272 -1.284,0.542 -1.924,0.819c-2.151,0.929 -4.288,1.889 -6.412,2.878c-3.526,1.641 -7.013,3.362 -10.473,5.139c-0.661,0.341 -1.322,0.684 -1.982,1.029c-0.497,0.261 -0.993,0.522 -1.489,0.785l-0.514,0.227c-2.762,1.229 -5.509,2.49 -8.239,3.789c-8.094,3.85 -16.046,7.993 -23.885,12.335c-9.111,5.047 -18.068,10.366 -26.921,15.849c-4.655,2.884 -9.28,5.815 -13.891,8.769c-1.444,0.928 -2.888,1.857 -4.331,2.788c-2.081,1.345 -4.32,2.711 -6.399,4.058l-4.36,2.823Z" style="fill:#ffe955;fill-opacity:0.701961;"/><path d="M416.569,191.65c8.686,-3.703 17.331,-7.506 25.969,-11.321c6.703,-2.965 13.402,-5.938 20.102,-8.908l1.163,-0.514c3.611,-1.589 7.223,-3.175 10.837,-4.757c24.218,-10.595 48.531,-20.998 73.225,-30.442c18.647,-7.131 37.511,-13.726 56.671,-19.348c15.25,-4.476 30.692,-8.336 46.316,-11.265c14.178,-2.657 28.512,-4.546 42.917,-5.357c3.185,-0.179 6.373,-0.306 9.562,-0.375c1.593,-0.035 3.186,-0.053 4.78,-0.062c0.637,-0.001 1.275,-0.002 1.912,-0.001c1.434,0.008 2.867,0.022 4.301,0.052c3.842,0.078 7.684,0.242 11.519,0.506c6.22,0.427 12.421,1.117 18.586,2.051c4.99,0.755 9.955,1.669 14.89,2.729c3.668,0.789 7.32,1.658 10.951,2.601c23.264,6.045 45.639,15.135 67.16,25.772c3.29,1.626 6.561,3.289 9.816,4.985c4.335,2.259 8.641,4.576 12.92,6.941c5.609,3.101 11.173,6.284 16.699,9.53c3.943,2.316 7.868,4.662 11.776,7.037c2.38,1.446 4.752,2.904 7.124,4.363c1.252,0.771 2.505,1.54 3.756,2.313c2.58,1.595 5.156,3.198 7.727,4.809l14.225,9.016l-1.073,0.678c-2.536,1.617 -5.07,3.238 -7.604,4.859c-6.038,3.867 -12.072,7.74 -18.113,11.603c-8.418,5.383 -16.854,10.738 -25.347,16.002l-9.948,6.096l-1.929,-0.879c-3.618,-1.637 -7.247,-3.249 -10.888,-4.835c-6.597,-2.874 -13.234,-5.658 -19.924,-8.312c-9.067,-3.597 -18.233,-6.957 -27.521,-9.943c-9.099,-2.924 -18.32,-5.491 -27.665,-7.51c-8.346,-1.802 -16.795,-3.166 -25.305,-3.901c-7.31,-0.631 -14.666,-0.795 -21.992,-0.357c-2.941,0.175 -5.877,0.441 -8.803,0.784c-2.106,0.247 -4.207,0.527 -6.304,0.847c-6.15,0.938 -12.251,2.184 -18.294,3.663c-6.721,1.645 -13.369,3.579 -19.946,5.728c-7.014,2.292 -13.946,4.829 -20.806,7.548c-10.079,3.995 -20.002,8.382 -29.799,13.025c-10.623,5.035 -21.101,10.374 -31.476,15.903c-9.629,5.131 -19.17,10.428 -28.615,15.824c-11.89,-3.788 -23.705,-7.836 -35.445,-12.09c-15.491,-5.615 -30.851,-11.588 -46.097,-17.84c-17.795,-7.296 -35.433,-14.974 -52.943,-22.932l-0.695,-0.327l-8.372,-3.989Z" style="fill:#ffe955;fill-opacity:0.701961;"/></g><g><path d="M5538.43,174.809l0.46,-0.237c7.801,-4.057 15.575,-8.168 23.324,-12.324c5.086,-2.729 10.162,-5.476 15.229,-8.241c2.679,-1.462 5.355,-2.931 8.03,-4.4c5.928,-3.256 11.846,-6.53 17.755,-9.823c9.089,-5.065 18.156,-10.17 27.222,-15.279c-3.607,2.025 -7.213,4.049 -10.821,6.071c-5.47,3.064 -10.944,6.122 -16.425,9.165c-5.914,3.283 -11.837,6.548 -17.771,9.794c-1.334,0.73 -2.671,1.456 -4.008,2.182c-2.707,1.471 -5.416,2.936 -8.129,4.397c-9.978,5.373 -19.994,10.676 -30.057,15.89l-5.176,2.649l0.367,0.156Z" style="fill:#8dc22b;fill-opacity:0.701961;"/><path d="M1332.57,182.431l7.174,-2.763l-2.713,-1.207l-1.57,-0.711l-0.866,-0.394c-1.264,-0.595 -2.528,-1.192 -3.792,-1.79c-4.075,-1.932 -8.144,-3.875 -12.206,-5.835c-8.318,-4.012 -16.607,-8.084 -24.871,-12.206c-4.178,-2.083 -8.349,-4.179 -12.514,-6.286c-1.355,-0.685 -2.709,-1.371 -4.062,-2.059c-0.456,-0.231 -0.916,-0.455 -1.368,-0.695c-8.408,-4.456 -16.791,-8.958 -25.16,-13.485c-6.732,-3.642 -13.454,-7.302 -20.175,-10.962c3.576,2.076 7.154,4.153 10.732,6.227c5.426,3.143 10.856,6.281 16.294,9.403c5.867,3.369 11.744,6.721 17.631,10.054c1.751,1.03 3.503,2.056 5.255,3.083c9.149,5.35 18.328,10.65 27.55,15.876c7.821,4.433 15.672,8.81 23.553,13.136l0.676,0.37l0.432,0.244Z" style="fill:#ffe955;fill-opacity:0.701961;"/><path d="M1434.14,234.691c15.666,7.171 31.506,13.943 47.549,20.204c0.965,0.387 1.932,0.771 2.899,1.155c4.311,1.703 8.635,3.374 12.976,4.999c14.27,5.345 28.713,10.241 43.337,14.527c14.741,4.32 29.671,8.024 44.771,10.855c9.557,1.792 19.182,3.233 28.855,4.232c3.632,0.376 7.269,0.688 10.912,0.933c3.1,0.208 6.203,0.371 9.309,0.453c6.019,0.158 12.044,0.045 18.054,-0.314c6.89,-0.411 13.759,-1.145 20.586,-2.156c2.285,-0.338 4.566,-0.708 6.842,-1.106c1.087,-0.19 2.173,-0.39 3.258,-0.591c1.763,-0.328 3.525,-0.663 5.284,-1.02c3.422,-0.694 6.833,-1.449 10.229,-2.261c11.162,-2.667 22.174,-5.937 33.04,-9.623c15.89,-5.391 31.469,-11.67 46.836,-18.399c17.999,-7.881 35.714,-16.39 53.376,-24.995l18.367,-8.972l-10.038,-4.98c-6.421,-3.224 -12.837,-6.459 -19.256,-9.686c-9.035,-4.536 -18.077,-9.057 -27.167,-13.484l-7.093,-3.427c-8.274,5.23 -16.598,10.373 -25.003,15.381c-12.408,7.393 -24.997,14.499 -37.895,21.007c-9.395,4.74 -18.957,9.161 -28.723,13.085c-4.697,1.887 -9.44,3.659 -14.233,5.289c-1.648,0.561 -3.303,1.105 -4.963,1.631c-0.75,0.238 -1.501,0.476 -2.256,0.703c-5.319,1.598 -10.694,3.01 -16.121,4.196c-6.961,1.521 -14.007,2.669 -21.1,3.363c-1.871,0.183 -3.745,0.335 -5.621,0.454c-1.7,0.107 -3.402,0.187 -5.104,0.254c-3.49,0.136 -6.983,0.202 -10.476,0.204c-11.547,0.007 -23.089,-0.679 -34.573,-1.865c-9.683,-1 -19.328,-2.357 -28.924,-3.995c-10.278,-1.755 -20.501,-3.831 -30.664,-6.161c-7.54,-1.729 -15.047,-3.598 -22.522,-5.588c-2.326,-0.619 -4.649,-1.249 -6.969,-1.891c-1.455,-0.403 -2.911,-0.802 -4.36,-1.226c-1.161,-0.341 -2.322,-0.684 -3.481,-1.029c-5.242,-1.565 -10.47,-3.179 -15.68,-4.845c-5.854,-1.871 -11.689,-3.804 -17.479,-5.807l-7.476,4.621l-9.303,5.875Z" style="fill:#ffe955;fill-opacity:0.701961;"/><path d="M4532.57,182.899l7.174,-2.763l-2.713,-1.207l-1.57,-0.711l-0.866,-0.394c-1.264,-0.595 -2.528,-1.192 -3.792,-1.79c-4.075,-1.932 -8.144,-3.876 -12.206,-5.835c-8.318,-4.013 -16.607,-8.085 -24.871,-12.206c-4.178,-2.083 -8.349,-4.179 -12.514,-6.286c-1.355,-0.685 -2.709,-1.371 -4.062,-2.059c-0.456,-0.231 -0.916,-0.456 -1.368,-0.695c-8.408,-4.456 -16.791,-8.958 -25.16,-13.486c-6.732,-3.641 -13.454,-7.301 -20.175,-10.962c3.576,2.077 7.154,4.154 10.732,6.228c5.426,3.143 10.856,6.28 16.294,9.403c5.867,3.369 11.744,6.721 17.631,10.053c1.751,1.03 3.503,2.057 5.255,3.083c9.149,5.351 18.328,10.651 27.55,15.877c7.821,4.432 15.672,8.81 23.553,13.136l0.676,0.37l0.432,0.244Z" style="fill:#faca33;fill-opacity:0.701961;"/><path d="M5403.11,237.183c8.281,-3.188 16.512,-6.53 24.703,-9.968c11.065,-4.644 22.055,-9.463 32.979,-14.427c15.89,-7.222 31.639,-14.752 47.267,-22.523c6.536,-3.249 13.049,-6.545 19.546,-9.873l10.823,-5.583l-0.367,-0.156l-10.611,5.434c-8.624,4.355 -17.288,8.631 -25.991,12.824c-14.138,6.811 -28.384,13.397 -42.758,19.694c-17.197,7.533 -34.577,14.656 -52.167,21.222l-5.687,2.044l2.263,1.312Z" style="fill:#8dc22b;fill-opacity:0.701961;"/><path d="M5403.11,237.183c8.281,-3.188 16.512,-6.53 24.703,-9.968c11.065,-4.644 22.055,-9.463 32.979,-14.427c15.89,-7.222 31.639,-14.752 47.267,-22.523c6.536,-3.249 13.049,-6.545 19.546,-9.873l10.823,-5.583l-0.367,-0.156l-10.611,5.434c-8.624,4.355 -17.288,8.631 -25.991,12.824c-14.138,6.811 -28.384,13.397 -42.758,19.694c-17.197,7.533 -34.577,14.656 -52.167,21.222l-5.687,2.044l2.263,1.312Z" style="fill:#faca33;fill-opacity:0.701961;"/><path d="M4995.86,195.761c1.408,0.688 2.815,1.378 4.22,2.07c-0.839,-0.413 -1.678,-0.826 -2.517,-1.237l-1.703,-0.833Zm30.277,15.074c2.139,1.077 4.277,2.153 6.416,3.23l-1.603,-0.807l-4.813,-2.423Zm32.848,-7.807l0.407,0.249l-0.407,-0.249l-0.652,-0.401l0.652,0.401Zm-4.873,-3.001l0.589,0.364l-0.589,-0.364Zm15.072,9.205c0.514,0.31 1.028,0.62 1.543,0.929l-0.981,-0.59l-0.562,-0.339Zm-18.964,-11.613c0,0 0,0 0,0Zm-5.124,-3.184c1.06,0.66 2.119,1.318 3.179,1.977l-1.943,-1.208l-1.236,-0.769Zm27.313,18.089c-6.94,3.32 -13.857,6.685 -20.772,10.058l-1.02,0.498l-18.367,8.972c-17.662,8.604 -35.377,17.113 -53.376,24.995c-15.367,6.729 -30.946,13.008 -46.836,18.399c-10.866,3.686 -21.878,6.955 -33.04,9.623c-3.396,0.811 -6.807,1.567 -10.229,2.261c-1.759,0.357 -3.521,0.692 -5.284,1.02c-1.085,0.201 -2.171,0.4 -3.258,0.591c-2.276,0.398 -4.557,0.768 -6.842,1.106c-6.827,1.01 -13.696,1.744 -20.586,2.156c-6.01,0.359 -12.035,0.472 -18.054,0.313c-3.106,-0.082 -6.209,-0.244 -9.309,-0.452c-3.643,-0.245 -7.28,-0.558 -10.912,-0.933c-9.673,-0.999 -19.298,-2.44 -28.855,-4.232c-15.1,-2.831 -30.03,-6.535 -44.771,-10.855c-14.624,-4.286 -29.067,-9.182 -43.337,-14.527c-4.341,-1.626 -8.665,-3.296 -12.976,-4.999c-0.967,-0.384 -1.934,-0.768 -2.899,-1.155c-16.043,-6.261 -31.883,-13.033 -47.549,-20.204l9.303,-5.875l7.476,-4.621c5.79,2.003 11.625,3.936 17.479,5.807c5.21,1.666 10.438,3.28 15.68,4.845c1.159,0.345 2.32,0.688 3.481,1.029c1.449,0.424 2.905,0.823 4.36,1.226c2.32,0.641 4.643,1.272 6.969,1.891c7.475,1.989 14.982,3.859 22.522,5.588c10.163,2.33 20.386,4.406 30.664,6.161c9.596,1.637 19.241,2.995 28.924,3.995c11.484,1.186 23.026,1.872 34.573,1.865c3.493,-0.002 6.986,-0.068 10.476,-0.205c1.702,-0.066 3.404,-0.146 5.104,-0.254c1.876,-0.118 3.75,-0.27 5.621,-0.453c7.093,-0.694 14.139,-1.842 21.1,-3.363c5.427,-1.186 10.802,-2.598 16.121,-4.196c0.755,-0.227 1.506,-0.465 2.256,-0.703c1.66,-0.527 3.315,-1.071 4.963,-1.631c4.793,-1.631 9.536,-3.402 14.233,-5.289c9.766,-3.924 19.328,-8.346 28.723,-13.086c12.898,-6.507 25.487,-13.613 37.895,-21.006c8.405,-5.008 16.729,-10.151 25.003,-15.381l16.578,-10.5l9.816,-6.287l11.335,-7.259c6.616,-4.227 13.239,-8.442 19.893,-12.61c2.571,-1.611 5.147,-3.214 7.728,-4.809c1.25,-0.773 2.503,-1.542 3.755,-2.312c1.337,-0.823 2.673,-1.647 4.012,-2.466c3.117,-1.907 6.243,-3.799 9.38,-5.672c14.944,-8.924 30.145,-17.44 45.767,-25.125c14.321,-7.045 29.004,-13.391 44.092,-18.613c10.573,-3.659 21.344,-6.763 32.276,-9.154c11.169,-2.443 22.506,-4.138 33.913,-4.946c4.796,-0.34 9.604,-0.528 14.411,-0.577c3.18,-0.032 6.36,-0.01 9.54,0.07c7.022,0.179 14.036,0.63 21.027,1.315c9.583,0.939 19.121,2.317 28.593,4.044c10.506,1.916 20.931,4.261 31.269,6.932c10.737,2.775 21.381,5.904 31.94,9.294c11.227,3.605 22.358,7.507 33.409,11.618c27.542,10.246 54.58,21.787 81.496,33.562c3.614,1.583 7.226,3.169 10.837,4.757l1.163,0.515c6.7,2.969 13.399,5.942 20.102,8.907c9.524,4.207 19.057,8.398 28.664,12.466l-10.611,5.434c-8.624,4.355 -17.288,8.631 -25.991,12.824c-14.138,6.811 -28.384,13.397 -42.758,19.694c-17.197,7.533 -34.577,14.656 -52.167,21.222l-5.687,2.044l-5.61,-3.254c-10.598,-6.063 -21.262,-12.013 -32.038,-17.755c-10.375,-5.529 -20.853,-10.867 -31.476,-15.902c-9.797,-4.644 -19.72,-9.031 -29.799,-13.026c-6.86,-2.719 -13.792,-5.256 -20.806,-7.548c-6.577,-2.149 -13.225,-4.083 -19.946,-5.728c-6.042,-1.479 -12.144,-2.725 -18.294,-3.663c-2.097,-0.32 -4.198,-0.6 -6.304,-0.847c-2.926,-0.343 -5.862,-0.608 -8.803,-0.784c-7.326,-0.437 -14.682,-0.274 -21.992,0.357c-8.51,0.735 -16.959,2.099 -25.305,3.902c-9.345,2.018 -18.566,4.585 -27.665,7.51c-9.288,2.985 -18.454,6.345 -27.521,9.942c-6.69,2.654 -13.327,5.438 -19.924,8.312c-3.641,1.586 -7.27,3.198 -10.888,4.835c-2.095,0.948 -4.187,1.903 -6.277,2.862c-0.525,0.242 -1.049,0.484 -1.572,0.727l-12.949,6.115l-1.267,0.598Z" style="fill:#faca33;fill-opacity:0.701961;"/><path d="M5004.3,169.045c-2.769,-1.698 -5.545,-3.385 -8.322,-5.069c-1.322,-0.802 -2.642,-1.605 -3.966,-2.403c-3.328,-2.009 -6.666,-4.002 -10.016,-5.977c-12.282,-7.239 -24.72,-14.223 -37.42,-20.705c-11.234,-5.734 -22.675,-11.076 -34.371,-15.801c-11.064,-4.47 -22.358,-8.386 -33.874,-11.521c-6.184,-1.683 -12.429,-3.135 -18.725,-4.337c-2.447,-0.467 -4.903,-0.89 -7.365,-1.274c-5.972,-0.933 -11.982,-1.621 -18.012,-2.042c-11.262,-0.787 -22.577,-0.711 -33.84,0.023c-13.69,0.892 -27.308,2.754 -40.79,5.281c-14.809,2.777 -29.46,6.357 -43.957,10.452c-16.049,4.533 -31.913,9.701 -47.643,15.232c-12.465,4.383 -24.848,8.998 -37.18,13.742c-10.713,4.121 -21.388,8.34 -32.049,12.595c-4.086,1.63 -8.169,3.266 -12.252,4.904c-1.916,0.768 -3.834,1.535 -5.749,2.306c-2.685,1.082 -5.364,2.176 -8.046,3.264l-6.812,2.758c-8.041,3.248 -16.087,6.484 -24.162,9.663l18.06,8.03c18.791,8.198 37.743,16.031 56.887,23.366c11.989,4.592 24.053,8.991 36.226,13.131c14.554,-9.051 29.262,-17.86 44.232,-26.214c9.963,-5.559 20.042,-10.915 30.274,-15.965c9.303,-4.591 18.733,-8.931 28.316,-12.908c7.886,-3.273 15.876,-6.3 23.979,-8.993c7.676,-2.552 15.455,-4.804 23.332,-6.652c5.385,-1.263 10.816,-2.337 16.284,-3.178c2.083,-0.321 4.171,-0.604 6.263,-0.857c5.088,-0.614 10.205,-1.002 15.329,-1.131c13.44,-0.336 26.887,1.047 40.084,3.544c7.513,1.421 14.956,3.204 22.321,5.259c7.97,2.223 15.85,4.764 23.647,7.534c11.872,4.217 23.552,8.961 35.095,14.006c4.763,2.082 9.502,4.216 14.223,6.389c2.694,1.24 5.382,2.491 8.064,3.758c1.282,0.606 2.562,1.218 3.842,1.831l0.862,0.417l7.093,3.427c9.09,4.426 18.132,8.948 27.167,13.484c6.419,3.227 12.835,6.461 19.256,9.686l10.038,4.98l1.188,0.595c12.285,6.145 24.609,12.149 37.068,17.865c13.771,6.318 27.711,12.29 41.913,17.575c12.148,4.521 24.492,8.539 37.051,11.758c4.317,1.107 8.659,2.113 13.022,3.019c2.888,0.6 5.783,1.16 8.69,1.664c5.457,0.946 10.947,1.707 16.458,2.255c5.994,0.596 12.013,0.939 18.036,0.996c1.601,0.015 3.202,0.011 4.802,-0.015c1.595,-0.026 3.189,-0.072 4.782,-0.13c2.672,-0.096 5.342,-0.231 8.01,-0.401c9.297,-0.591 18.565,-1.609 27.781,-2.962c14.443,-2.119 28.761,-5.056 42.929,-8.564c15.657,-3.875 31.137,-8.45 46.45,-13.51c4.049,-1.338 8.087,-2.711 12.113,-4.115c1.836,-0.641 3.669,-1.29 5.501,-1.941c1.919,-0.681 3.838,-1.366 5.753,-2.06c4.337,-1.571 8.662,-3.177 12.974,-4.815l7.97,-3.111l-2.263,-1.312l-14.277,5.129c-3.657,1.261 -7.323,2.498 -10.999,3.702c-1.262,0.413 -2.527,0.819 -3.793,1.223c-2.317,0.74 -4.639,1.469 -6.964,2.185c-6.629,2.042 -13.29,3.984 -19.981,5.813c-13.608,3.719 -27.348,6.975 -41.208,9.607c-12.671,2.405 -25.446,4.292 -38.291,5.47c-8.243,0.756 -16.516,1.219 -24.793,1.318c-2.336,0.027 -4.673,0.026 -7.009,-0.006c-1.537,-0.021 -3.073,-0.053 -4.609,-0.107c-1.525,-0.053 -3.05,-0.126 -4.573,-0.219c-7.655,-0.466 -15.277,-1.432 -22.82,-2.815c-4.074,-0.748 -8.125,-1.617 -12.15,-2.594c-1.268,-0.307 -2.533,-0.626 -3.795,-0.954c-0.76,-0.198 -1.52,-0.397 -2.277,-0.605c-2.283,-0.628 -4.557,-1.283 -6.823,-1.972c-4.841,-1.473 -9.639,-3.086 -14.394,-4.817c-10.811,-3.937 -21.396,-8.481 -31.786,-13.42c-13.655,-6.49 -26.978,-13.66 -40.096,-21.171c-5.204,-2.98 -10.376,-6.014 -15.506,-9.095l-1.025,-0.617c-10.495,-6.26 -20.872,-12.686 -31.229,-19.141c-7.11,-4.438 -14.213,-8.888 -21.325,-13.323l-7.665,-4.746l-9.163,-5.671Z" style="fill:#8dc22b;fill-opacity:0.701961;"/><path d="M4643.44,229.284l7.476,-4.621c-12.173,-4.14 -24.237,-8.539 -36.226,-13.131c-19.144,-7.335 -38.096,-15.168 -56.887,-23.366l-18.06,-8.03l-7.174,2.763l3.415,1.924c1.518,0.852 3.038,1.702 4.558,2.551c6.701,3.733 13.423,7.427 20.175,11.067c18.815,10.144 37.845,19.897 57.135,29.109c5.409,2.583 10.839,5.123 16.285,7.609l9.303,-5.875Z" style="fill:#8dc22b;fill-opacity:0.701961;"/><path d="M4643.44,229.284l7.476,-4.621c-12.173,-4.14 -24.237,-8.539 -36.226,-13.131c-19.144,-7.335 -38.096,-15.168 -56.887,-23.366l-18.06,-8.03l-7.174,2.763l3.415,1.924c1.518,0.852 3.038,1.702 4.558,2.551c6.701,3.733 13.423,7.427 20.175,11.067c18.815,10.144 37.845,19.897 57.135,29.109c5.409,2.583 10.839,5.123 16.285,7.609l9.303,-5.875Z" style="fill:#faca33;fill-opacity:0.701961;"/><path d="M3492.63,196.39l6.205,-3.795c12.408,-7.393 24.997,-14.5 37.895,-21.007c9.395,-4.74 18.957,-9.161 28.723,-13.085c4.697,-1.887 9.44,-3.659 14.233,-5.289c1.648,-0.561 3.303,-1.105 4.963,-1.631c0.75,-0.238 1.501,-0.476 2.256,-0.703c5.319,-1.598 10.694,-3.01 16.121,-4.196c6.961,-1.521 14.007,-2.67 21.1,-3.364c1.871,-0.183 3.745,-0.334 5.621,-0.453c1.7,-0.107 3.402,-0.187 5.104,-0.254c3.49,-0.137 6.983,-0.202 10.476,-0.204c11.547,-0.007 23.09,0.679 34.573,1.865c9.683,1 19.328,2.357 28.924,3.995c10.279,1.754 20.501,3.831 30.665,6.161c7.539,1.729 15.046,3.598 22.521,5.588c2.326,0.619 4.649,1.249 6.969,1.891c1.455,0.403 2.911,0.802 4.36,1.226c1.161,0.341 2.322,0.684 3.481,1.029l14.999,4.634l1.85,-1.039l17.751,-10.305c-10.634,-4.648 -21.376,-9.11 -32.211,-13.339c-0.965,-0.386 -1.932,-0.771 -2.898,-1.154c-4.312,-1.704 -8.636,-3.374 -12.977,-5c-14.27,-5.344 -28.713,-10.24 -43.337,-14.526c-14.741,-4.32 -29.671,-8.024 -44.771,-10.855c-9.557,-1.792 -19.182,-3.233 -28.855,-4.233c-3.632,-0.375 -7.269,-0.687 -10.912,-0.932c-3.1,-0.208 -6.203,-0.371 -9.309,-0.453c-6.018,-0.159 -12.044,-0.045 -18.054,0.314c-6.89,0.411 -13.759,1.145 -20.586,2.156c-2.285,0.338 -4.566,0.707 -6.842,1.106c-1.087,0.19 -2.173,0.39 -3.258,0.591c-1.763,0.328 -3.525,0.663 -5.284,1.019c-3.422,0.694 -6.833,1.45 -10.229,2.262c-11.161,2.667 -22.174,5.936 -33.039,9.623c-15.891,5.391 -31.47,11.67 -46.837,18.399c-17.381,7.611 -34.498,15.807 -51.562,24.123l5.037,2.452c10.18,4.972 20.35,9.966 30.554,14.89c4.751,2.292 9.508,4.569 14.279,6.819c2.316,1.093 4.634,2.183 6.958,3.258l5.343,2.416Z" style="fill:#ffe955;fill-opacity:0.701961;"/><path d="M3935.34,225.954l6.957,3.326c8.318,4.012 16.607,8.084 24.872,12.205c4.177,2.084 8.348,4.179 12.513,6.286c1.355,0.686 2.709,1.372 4.062,2.059c0.456,0.232 0.916,0.456 1.368,0.696c8.408,4.456 16.791,8.958 25.16,13.485c6.732,3.642 13.454,7.302 20.176,10.962c-3.577,-2.077 -7.155,-4.153 -10.733,-6.227c-5.426,-3.143 -10.856,-6.281 -16.294,-9.403c-5.867,-3.369 -11.744,-6.721 -17.631,-10.054c-1.751,-1.03 -3.503,-2.057 -5.255,-3.083c-9.149,-5.35 -18.328,-10.65 -27.549,-15.876l-12.07,-6.732l-4.708,1.978l-0.868,0.378Z" style="fill:#ffe955;fill-opacity:0.701961;"/><path d="M5866.88,265.269c-4.362,2.82 -8.73,5.631 -13.117,8.411c-7.614,4.826 -15.283,9.567 -23.029,14.177c-16.275,9.687 -32.894,18.812 -49.966,27.019c-4.812,2.313 -9.66,4.55 -14.544,6.709l-0.255,0.098c-1.723,0.659 -3.449,1.312 -5.179,1.953c-3.148,1.166 -6.309,2.297 -9.483,3.392c-5.382,1.856 -10.801,3.606 -16.256,5.233c-1.835,0.547 -3.673,1.078 -5.515,1.598c-7.538,2.129 -15.149,4.008 -22.819,5.601c-12.706,2.639 -25.587,4.484 -38.544,5.277c-2.921,0.179 -5.845,0.304 -8.771,0.373c-1.476,0.034 -2.953,0.053 -4.429,0.06c-0.848,0.002 -1.696,0 -2.544,-0.005c-1.491,-0.014 -2.983,-0.039 -4.473,-0.082c-2.795,-0.081 -5.588,-0.216 -8.377,-0.41c-4.141,-0.287 -8.272,-0.701 -12.386,-1.249c-1.76,-0.235 -3.518,-0.491 -5.271,-0.778c-1.468,-0.24 -2.933,-0.499 -4.395,-0.773c-13.433,-2.518 -26.586,-6.394 -39.418,-11.073c-7.023,-2.561 -13.957,-5.366 -20.812,-8.347c-7.176,-3.121 -14.267,-6.436 -21.29,-9.887c-13.533,-6.65 -26.817,-13.798 -39.97,-21.166c-14.798,-8.291 -29.43,-16.872 -44.042,-25.483c-5.622,-3.317 -11.24,-6.637 -16.862,-9.953c-10.646,-6.317 -21.302,-12.616 -32.016,-18.781c8.281,-3.188 16.512,-6.53 24.703,-9.968c11.065,-4.644 22.055,-9.463 32.979,-14.427c15.89,-7.222 31.639,-14.752 47.267,-22.523c6.536,-3.249 13.049,-6.545 19.546,-9.873l10.823,-5.583l13.655,5.801c6.527,2.705 13.081,5.349 19.674,7.89c5.833,2.249 11.698,4.419 17.606,6.462c4.916,1.7 9.862,3.315 14.848,4.795c4.372,1.299 8.775,2.496 13.217,3.532c3.295,0.768 6.612,1.448 9.953,1.986c2.92,0.47 5.862,0.836 8.816,1.002c0.927,0.052 1.855,0.076 2.783,0.088l0.156,-0.005c4.221,-0.098 8.425,-0.611 12.574,-1.378c4.54,-0.838 9.021,-1.98 13.437,-3.319c3.235,-0.981 6.437,-2.07 9.607,-3.242c2.895,-1.071 5.764,-2.211 8.608,-3.412c0.642,-0.271 1.284,-0.542 1.924,-0.818c2.151,-0.929 4.288,-1.89 6.412,-2.878c3.525,-1.641 7.013,-3.363 10.472,-5.139c0.662,-0.342 1.323,-0.685 1.983,-1.029c0.497,-0.261 0.993,-0.522 1.489,-0.785l0.514,-0.227c2.762,-1.229 5.509,-2.491 8.239,-3.789c8.094,-3.85 16.046,-7.993 23.885,-12.336c9.11,-5.046 18.067,-10.365 26.921,-15.849c4.655,-2.883 9.28,-5.815 13.89,-8.769c1.445,-0.927 2.889,-1.856 4.332,-2.787c2.08,-1.345 4.16,-2.691 6.239,-4.038l0.545,-0.351c5.63,-3.593 11.265,-6.357 16.932,-9.948c7.614,-4.826 15.283,-9.566 23.029,-14.177c16.275,-9.686 32.894,-18.811 49.966,-27.018c4.812,-2.314 9.66,-4.55 14.544,-6.709l0.255,-0.099c2.07,-0.791 4.143,-1.573 6.222,-2.337c4.217,-1.55 8.457,-3.039 12.72,-4.458c5.431,-1.809 10.9,-3.509 16.406,-5.075c3.545,-1.008 7.104,-1.967 10.678,-2.866c3.045,-0.766 6.1,-1.49 9.166,-2.169c19.761,-4.377 40.001,-6.893 60.262,-6.552c3.865,0.064 7.729,0.234 11.584,0.513c4.364,0.317 8.718,0.775 13.05,1.383c1.322,0.186 2.642,0.383 3.959,0.598c3.803,0.623 7.586,1.363 11.347,2.201c6.814,1.519 13.553,3.368 20.209,5.47c7.13,2.251 14.166,4.793 21.116,7.549c7.504,2.975 14.908,6.198 22.23,9.596c7.408,3.438 14.733,7.054 21.994,10.792c7.635,3.931 15.201,7.998 22.718,12.15c16.942,9.357 33.64,19.146 50.313,28.972c5.622,3.316 11.24,6.637 16.862,9.953c7.88,4.675 15.766,9.341 23.69,13.952c-13.453,5.874 -26.773,12.065 -39.973,18.499c-19.104,9.312 -37.957,19.134 -56.605,29.326c-6.663,3.641 -13.297,7.334 -19.912,11.062l-0.83,0.469c-1.23,0.674 -2.458,1.349 -3.687,2.025c-1.494,0.824 -2.988,1.65 -4.481,2.477l-4.034,2.27l-11.125,-4.726c-6.527,-2.705 -13.081,-5.349 -19.674,-7.891c-5.833,-2.249 -11.698,-4.418 -17.606,-6.462c-4.916,-1.7 -9.862,-3.314 -14.848,-4.795c-4.372,-1.298 -8.775,-2.496 -13.217,-3.532c-3.295,-0.768 -6.612,-1.448 -9.953,-1.985c-2.92,-0.47 -5.862,-0.837 -8.816,-1.002c-0.927,-0.052 -1.854,-0.077 -2.783,-0.088l-0.156,0.005c-4.221,0.098 -8.424,0.611 -12.574,1.377c-4.54,0.838 -9.021,1.981 -13.437,3.32c-3.235,0.981 -6.437,2.069 -9.607,3.242c-2.895,1.07 -5.764,2.21 -8.608,3.411c-0.642,0.271 -1.284,0.542 -1.924,0.819c-2.151,0.928 -4.288,1.889 -6.412,2.878c-3.525,1.641 -7.013,3.362 -10.472,5.138c-0.662,0.342 -1.323,0.685 -1.983,1.03c-0.496,0.261 -0.993,0.521 -1.488,0.784l-0.514,0.228c-2.763,1.229 -5.51,2.49 -8.24,3.789c-8.094,3.849 -16.046,7.993 -23.885,12.335c-9.11,5.047 -18.067,10.366 -26.921,15.849c-4.655,2.883 -9.28,5.815 -13.89,8.769c-1.445,0.928 -2.889,1.857 -4.332,2.788c-2.08,1.344 -4.16,1.755 -6.239,3.102l-4.36,2.823Z" style="fill:#faca33;fill-opacity:0.701961;"/><path d="M3936.21,225.576l4.708,-1.978l-11.484,-6.404l-0.676,-0.37c-1.282,-0.724 -2.564,-1.447 -3.847,-2.168c-1.518,-0.852 -3.038,-1.702 -4.558,-2.551c-6.701,-3.733 -13.423,-7.428 -20.175,-11.068c-18.815,-10.144 -37.845,-19.896 -57.135,-29.108c-10.454,-4.992 -20.984,-9.826 -31.623,-14.475l-17.751,10.305l-1.85,1.039l0.681,0.211c18.084,5.78 35.977,12.147 53.705,18.938c19.144,7.334 38.096,15.168 56.887,23.365c6.946,3.031 13.868,6.115 20.773,9.237l1.57,0.712l0.866,0.393c1.264,0.596 2.528,1.193 3.792,1.791l5.249,2.509l0.868,-0.378Z" style="fill:#ffe955;fill-opacity:0.701961;"/><path d="M3818.86,153.137c2.104,-1.238 4.206,-2.478 6.308,-3.72c3.323,-1.964 6.642,-3.935 9.964,-5.902c1.411,-0.835 2.824,-1.666 4.236,-2.5c4.208,-2.484 8.416,-4.971 12.626,-7.453c8.904,-5.25 17.818,-10.485 26.771,-15.652c9.358,-5.4 18.759,-10.726 28.243,-15.902c9.054,-4.941 18.184,-9.746 27.428,-14.321c8.31,-4.113 16.715,-8.042 25.241,-11.688c7.928,-3.391 15.964,-6.538 24.122,-9.334c7.673,-2.629 15.456,-4.946 23.344,-6.838c4.888,-1.172 9.817,-2.182 14.778,-2.994c2.838,-0.465 5.689,-0.855 8.545,-1.186c3.459,-0.401 6.93,-0.708 10.406,-0.927c2.572,-0.162 5.147,-0.275 7.723,-0.341c19.314,-0.498 38.635,1.631 57.539,5.519c3.091,0.636 6.173,1.32 9.245,2.047c4.744,1.123 9.464,2.35 14.156,3.675c1.472,0.415 2.943,0.837 4.411,1.27c3.658,1.079 7.3,2.214 10.925,3.399c4.283,1.4 8.543,2.871 12.78,4.405c2.09,0.756 4.173,1.531 6.253,2.315c0.774,0.294 1.547,0.588 2.319,0.885c4.884,2.159 9.732,4.396 14.544,6.709c17.072,8.207 33.691,17.332 49.966,27.018c7.746,4.611 15.415,9.352 23.029,14.177c5.778,3.662 11.523,7.376 17.263,11.096l0.214,-0.329c4.633,3.002 9.267,6.002 13.923,8.968c4.714,3.004 9.451,5.971 14.217,8.891c5.915,3.624 11.884,7.163 17.914,10.593c8.454,4.808 17.033,9.402 25.773,13.669c2.734,1.335 5.486,2.634 8.252,3.903c0.685,0.312 1.371,0.623 2.058,0.932c0.627,0.281 1.255,0.561 1.884,0.839l0.159,0.099c4.614,2.846 9.286,5.597 14.038,8.208c2.074,1.14 4.164,2.254 6.269,3.338c0.421,0.217 0.846,0.428 1.268,0.643c0.095,0.049 0.188,0.1 0.282,0.148c0.614,0.315 1.232,0.62 1.85,0.926c1.215,0.602 2.436,1.193 3.662,1.772c3.49,1.65 7.024,3.208 10.607,4.645c4.655,1.868 9.393,3.536 14.219,4.905c4.483,1.271 9.044,2.281 13.667,2.883c0.452,0.058 0.905,0.107 1.357,0.165c0.437,0.029 0.873,0.06 1.31,0.082c0.698,0.036 1.397,0.057 2.096,0.066c3.199,0.042 6.399,-0.155 9.58,-0.479c3.374,-0.343 6.733,-0.835 10.073,-1.421c4.652,-0.817 9.271,-1.82 13.859,-2.939c5.187,-1.265 10.337,-2.681 15.457,-4.196c6.606,-1.954 13.162,-4.075 19.682,-6.298c7.342,-2.505 14.639,-5.141 21.907,-7.856l15.975,-6.152l3.415,1.924c1.518,0.852 3.038,1.702 4.558,2.551c6.701,3.733 13.423,7.427 20.175,11.067c18.815,10.144 37.845,19.897 57.135,29.109c5.409,2.583 10.839,5.123 16.285,7.609l-7.666,4.841c-2.236,1.425 -4.472,2.85 -6.706,4.277l-1.062,0.673c-8.264,5.24 -16.521,10.493 -24.785,15.733c-14.224,9.003 -28.478,17.962 -42.931,26.594c-12.489,7.459 -25.127,14.684 -38.044,21.382c-6.06,3.142 -12.183,6.167 -18.381,9.027c-6.147,2.837 -12.369,5.512 -18.678,7.968c-11.402,4.439 -23.102,8.17 -35.072,10.736c-0.849,0.182 -1.7,0.36 -2.551,0.529c-1.06,0.211 -2.123,0.406 -3.187,0.596c-2.106,0.375 -4.219,0.714 -6.337,1.018c-6.463,0.928 -12.972,1.528 -19.494,1.834c-3.309,0.155 -6.621,0.23 -9.933,0.242c-0.823,0.001 -1.645,-0.001 -2.467,-0.007c-4.283,-0.04 -8.564,-0.185 -12.839,-0.444c-9.768,-0.589 -19.499,-1.736 -29.153,-3.327c-7.698,-1.269 -15.349,-2.818 -22.942,-4.611c-0.365,-0.086 -0.731,-0.17 -1.096,-0.257c-1.495,-0.355 -2.986,-0.722 -4.476,-1.096c-5.523,-1.388 -11.016,-2.896 -16.477,-4.509c-4.293,-1.268 -8.564,-2.606 -12.82,-3.993c-0.788,-0.259 -1.577,-0.518 -2.364,-0.78c-4.884,-2.159 -9.732,-4.396 -14.544,-6.709c-17.072,-8.207 -33.691,-17.332 -49.966,-27.019c-7.746,-4.61 -15.415,-9.351 -23.029,-14.177c-5.778,-3.661 -11.523,-7.376 -17.263,-11.095l-0.214,0.329c-4.633,-3.002 -9.267,-6.002 -13.923,-8.969c-4.714,-3.003 -9.451,-5.971 -14.217,-8.891c-5.915,-3.624 -11.884,-7.162 -17.914,-10.592c-8.454,-4.809 -17.033,-9.402 -25.773,-13.669c-2.734,-1.335 -5.486,-2.635 -8.252,-3.903c-0.685,-0.313 -1.371,-0.623 -2.058,-0.933c-0.627,-0.281 -1.255,-0.56 -1.883,-0.838l-0.165,-0.088c-4.117,-2.173 -8.273,-4.271 -12.483,-6.257c-2.55,-1.204 -5.119,-2.368 -7.708,-3.486c-0.64,-0.277 -1.282,-0.547 -1.924,-0.819c-5.321,-2.247 -10.732,-4.289 -16.237,-6.039c-4.595,-1.46 -9.259,-2.718 -13.989,-3.66c-4.272,-0.851 -8.603,-1.445 -12.958,-1.619c-0.399,-0.015 -0.799,-0.024 -1.198,-0.037c-0.928,0.011 -1.856,0.036 -2.783,0.088c-2.808,0.157 -5.606,0.497 -8.385,0.933c-3.142,0.494 -6.264,1.116 -9.366,1.821c-4.195,0.952 -8.356,2.055 -12.487,3.252c-4.708,1.365 -9.378,2.855 -14.021,4.427c-5.599,1.896 -11.157,3.913 -16.686,6.007c-6.263,2.373 -12.488,4.846 -18.688,7.382l-15.648,6.574l-4.708,1.978l-0.868,0.378l-19.376,8.44c-3.293,1.451 -6.584,2.905 -9.875,4.361c-3.343,1.481 -6.685,2.962 -10.028,4.444c-2.643,1.172 -5.283,2.348 -7.929,3.515c-1.888,0.832 -3.778,1.661 -5.667,2.49c-4.613,2.026 -9.228,4.045 -13.848,6.053c-12.971,5.64 -25.979,11.195 -39.07,16.552c-12.394,5.074 -24.862,9.971 -37.435,14.587c-11.374,4.175 -22.834,8.12 -34.398,11.737c-17.058,5.336 -34.351,9.968 -51.881,13.472c-14.787,2.955 -29.749,5.105 -44.8,6.102c-3.82,0.253 -7.645,0.431 -11.472,0.528c-1.912,0.049 -3.824,0.074 -5.737,0.085c-0.637,0.001 -1.275,0.001 -1.912,0c-1.434,-0.008 -2.867,-0.022 -4.301,-0.051c-3.842,-0.079 -7.684,-0.243 -11.518,-0.506c-6.379,-0.438 -12.738,-1.153 -19.057,-2.123c-4.832,-0.741 -9.64,-1.631 -14.42,-2.658c-3.668,-0.788 -7.319,-1.657 -10.951,-2.601c-23.264,-6.045 -45.639,-15.135 -67.16,-25.771c-3.289,-1.626 -6.561,-3.29 -9.816,-4.985c-4.335,-2.259 -8.641,-4.576 -12.92,-6.942c-5.609,-3.1 -11.173,-6.283 -16.699,-9.53c-3.943,-2.316 -7.868,-4.662 -11.776,-7.037c-2.38,-1.446 -4.752,-2.903 -7.124,-4.363c-1.252,-0.77 -2.505,-1.539 -3.755,-2.312c-2.066,-1.276 -4.127,-2.558 -6.186,-3.845l-15.796,-9.981l5.668,-3.593c7.053,-4.512 14.098,-9.035 21.151,-13.546c11.716,-7.488 23.463,-14.933 35.376,-22.086l8.08,3.656c7.881,3.491 15.814,6.866 23.822,10.056c8.602,3.427 17.291,6.643 26.089,9.533c8.009,2.63 16.111,4.99 24.309,6.956c7.39,1.773 14.861,3.225 22.394,4.233c6.669,0.892 13.388,1.434 20.117,1.523c3.346,0.045 6.693,-0.023 10.033,-0.215c1.094,-0.063 2.187,-0.141 3.28,-0.228c1.944,-0.156 3.885,-0.347 5.822,-0.574c1.682,-0.197 3.361,-0.414 5.036,-0.657c4.998,-0.727 9.965,-1.661 14.895,-2.76c6.877,-1.534 13.682,-3.388 20.41,-5.48c7.454,-2.317 14.816,-4.926 22.094,-7.746c9.268,-3.591 18.4,-7.525 27.423,-11.692c9.529,-4.401 18.936,-9.063 28.252,-13.899c7.298,-3.788 14.542,-7.681 21.741,-11.655l15.392,-8.643l1.85,-1.039l17.751,-10.305l7.436,-4.317Z" style="fill:#8dc22b;fill-opacity:0.701961;"/><path d="M3048.2,158.019c-13.025,5.709 -25.925,11.715 -38.713,17.948c-19.104,9.311 -37.957,19.133 -56.605,29.325c-6.663,3.642 -13.297,7.334 -19.912,11.062l-0.83,0.47c-1.23,0.673 -2.458,1.348 -3.687,2.024c-1.494,0.824 -2.988,1.65 -4.481,2.477l-4.034,2.27l-17.715,9.97c-9.066,5.175 -18.092,10.419 -27.091,15.709c-0.43,0.253 -0.869,0.492 -1.303,0.739c-1.292,0.731 -2.583,1.464 -3.873,2.197c-5.769,3.283 -11.53,6.58 -17.281,9.894c-7.419,4.273 -14.823,8.571 -22.226,12.869c3.632,-1.978 7.264,-3.955 10.898,-5.931c11.453,-6.221 22.921,-12.413 34.437,-18.516c0.452,-0.24 0.912,-0.464 1.368,-0.696c0.449,-0.228 0.898,-0.456 1.348,-0.684c1.359,-0.689 2.719,-1.378 4.08,-2.065c4.183,-2.113 8.372,-4.214 12.567,-6.303c8.294,-4.129 16.613,-8.207 24.961,-12.226l13.794,-6.57l0.695,-0.328c17.51,-7.958 35.148,-15.635 52.943,-22.932c15.246,-6.251 30.606,-12.225 46.097,-17.839c11.74,-4.255 23.555,-8.303 35.445,-12.091l0.187,-0.061c4.056,-1.292 8.121,-2.554 12.197,-3.784c1.449,-0.438 2.9,-0.871 4.353,-1.3c0.766,-0.227 1.532,-0.454 2.3,-0.676c0.684,-0.197 1.37,-0.386 2.056,-0.577c1.452,-0.406 2.905,-0.807 4.359,-1.203c4.625,-1.262 9.261,-2.478 13.91,-3.645c13.319,-3.344 26.741,-6.288 40.262,-8.69c9.634,-1.712 19.317,-3.148 29.042,-4.233c8.997,-1.004 18.029,-1.707 27.077,-2.025c6.083,-0.214 12.173,-0.254 18.258,-0.084c1.724,0.048 3.448,0.113 5.172,0.195c1.083,0.052 2.166,0.11 3.248,0.181c2.346,0.153 4.688,0.358 7.026,0.612c9.388,1.018 18.681,2.822 27.812,5.221c2.563,0.674 5.114,1.394 7.652,2.157c0.992,0.298 1.979,0.613 2.965,0.929c1.66,0.532 3.315,1.081 4.964,1.648c5.28,1.813 10.501,3.796 15.665,5.916c12.802,5.254 25.253,11.337 37.447,17.871c11.29,6.049 22.366,12.489 33.315,19.133l4.348,-1.983c0.525,-0.241 1.049,-0.483 1.572,-0.726c4.75,-2.214 9.488,-4.452 14.216,-6.713c6.94,-3.32 13.858,-6.686 20.772,-10.058c6.463,-3.157 12.923,-6.318 19.387,-9.471l1.814,-0.871l-3.084,-1.502c-17.405,-8.447 -34.881,-16.764 -52.648,-24.425c-14.293,-6.163 -28.776,-11.908 -43.528,-16.88c-10.869,-3.663 -21.884,-6.905 -33.048,-9.54c-3.398,-0.802 -6.809,-1.548 -10.232,-2.231c-1.475,-0.295 -2.952,-0.573 -4.43,-0.848c-1.085,-0.201 -2.171,-0.401 -3.258,-0.591c-1.992,-0.349 -3.987,-0.675 -5.986,-0.978c-6.258,-0.948 -12.552,-1.665 -18.865,-2.115c-6.721,-0.48 -13.465,-0.657 -20.201,-0.494c-3.25,0.079 -6.496,0.246 -9.739,0.464c-4.206,0.283 -8.406,0.656 -12.597,1.111c-9.683,1.052 -19.316,2.541 -28.88,4.378c-16.886,3.243 -33.557,7.561 -49.989,12.611c-9.615,2.954 -19.151,6.162 -28.611,9.578c-7.943,2.868 -15.834,5.882 -23.673,9.022c-1.052,0.411 -2.104,0.824 -3.155,1.239c-5.49,2.172 -10.959,4.398 -16.403,6.681l-12.671,5.432l-1.26,0.552Z" style="fill:#8dc22b;fill-opacity:0.701961;"/><path d="M3430.44,235.615l5.668,-3.593c7.053,-4.512 14.098,-9.035 21.151,-13.546c11.716,-7.488 23.463,-14.933 35.376,-22.086l-5.343,-2.416c-2.324,-1.075 -4.642,-2.165 -6.958,-3.258c-4.771,-2.25 -9.528,-4.527 -14.279,-6.819c-10.204,-4.924 -20.374,-9.918 -30.554,-14.89l-5.037,-2.452l-1.814,0.871c-6.464,3.153 -12.924,6.314 -19.387,9.471c-6.914,3.372 -13.832,6.738 -20.772,10.058c-4.728,2.261 -9.466,4.499 -14.216,6.713c-0.523,0.243 -1.047,0.485 -1.572,0.726l-4.348,1.983l9.948,6.097c8.493,5.263 16.929,10.619 25.347,16.002c6.041,3.863 12.075,7.735 18.113,11.603c2.534,1.621 5.068,3.241 7.604,4.859l1.073,0.677Z" style="fill:#8dc22b;fill-opacity:0.701961;"/><path d="M3430.44,235.615l5.668,-3.593c7.053,-4.512 14.098,-9.035 21.151,-13.546c11.716,-7.488 23.463,-14.933 35.376,-22.086l-5.343,-2.416c-2.324,-1.075 -4.642,-2.165 -6.958,-3.258c-4.771,-2.25 -9.528,-4.527 -14.279,-6.819c-10.204,-4.924 -20.374,-9.918 -30.554,-14.89l-5.037,-2.452l-1.814,0.871c-6.464,3.153 -12.924,6.314 -19.387,9.471c-6.914,3.372 -13.832,6.738 -20.772,10.058c-4.728,2.261 -9.466,4.499 -14.216,6.713c-0.523,0.243 -1.047,0.485 -1.572,0.726l-4.348,1.983l9.948,6.097c8.493,5.263 16.929,10.619 25.347,16.002c6.041,3.863 12.075,7.735 18.113,11.603c2.534,1.621 5.068,3.241 7.604,4.859l1.073,0.677Z" style="fill:#ffe955;fill-opacity:0.701961;"/><path d="M1450.92,224.195c14.554,-9.051 29.262,-17.86 44.232,-26.213c9.963,-5.56 20.042,-10.916 30.274,-15.966c9.303,-4.591 18.733,-8.931 28.316,-12.908c7.886,-3.273 15.876,-6.3 23.979,-8.993c7.676,-2.552 15.455,-4.804 23.332,-6.652c5.385,-1.263 10.816,-2.337 16.284,-3.178c2.083,-0.321 4.171,-0.604 6.263,-0.857c5.088,-0.613 10.205,-1.002 15.329,-1.13c13.44,-0.337 26.887,1.046 40.084,3.543c7.513,1.421 14.956,3.204 22.321,5.259c7.97,2.223 15.85,4.765 23.647,7.534c11.872,4.217 23.552,8.962 35.095,14.007c4.763,2.081 9.502,4.215 14.223,6.388c2.694,1.24 5.382,2.491 8.064,3.758c1.282,0.606 2.562,1.219 3.842,1.831l0.862,0.417l16.578,-10.5l9.816,-6.286l-9.163,-5.672c-2.769,-1.698 -5.545,-3.384 -8.322,-5.069c-1.322,-0.802 -2.642,-1.604 -3.966,-2.403c-3.328,-2.009 -6.666,-4.002 -10.016,-5.976c-12.282,-7.24 -24.72,-14.224 -37.42,-20.706c-11.234,-5.734 -22.675,-11.076 -34.371,-15.801c-11.064,-4.469 -22.358,-8.386 -33.874,-11.52c-6.184,-1.684 -12.429,-3.136 -18.725,-4.338c-2.447,-0.467 -4.903,-0.89 -7.365,-1.274c-5.972,-0.932 -11.982,-1.621 -18.012,-2.042c-11.262,-0.786 -22.577,-0.71 -33.84,0.023c-13.69,0.892 -27.308,2.754 -40.79,5.281c-14.809,2.777 -29.46,6.357 -43.957,10.452c-16.049,4.534 -31.913,9.701 -47.643,15.233c-12.465,4.383 -24.848,8.998 -37.18,13.741c-10.713,4.121 -21.388,8.34 -32.049,12.595c-4.086,1.63 -8.169,3.266 -12.252,4.904c-1.916,0.769 -3.834,1.535 -5.749,2.306c-2.685,1.082 -5.364,2.177 -8.046,3.264l-6.812,2.759c-8.041,3.247 -16.087,6.484 -24.162,9.662l18.06,8.03c18.791,8.198 37.743,16.031 56.887,23.366c11.989,4.593 24.053,8.991 36.226,13.131Z" style="fill:#faca33;fill-opacity:0.701961;"/><path d="M2338.43,174.341l0.46,-0.236c7.801,-4.058 15.575,-8.169 23.324,-12.325c5.086,-2.728 10.162,-5.476 15.229,-8.241c2.679,-1.462 5.355,-2.931 8.03,-4.4c5.928,-3.256 11.846,-6.53 17.755,-9.823c9.089,-5.064 18.156,-10.17 27.222,-15.278c-3.607,2.024 -7.213,4.048 -10.821,6.07c-5.47,3.064 -10.944,6.122 -16.425,9.165c-5.914,3.283 -11.837,6.548 -17.771,9.794c-1.334,0.73 -2.671,1.456 -4.008,2.182c-2.707,1.471 -5.416,2.937 -8.129,4.397c-9.978,5.374 -19.994,10.676 -30.057,15.89l-5.176,2.65l0.367,0.155Z" style="fill:#faca33;fill-opacity:0.701961;"/><path d="M1850.62,222.612c12.678,6.352 25.395,12.56 38.256,18.461c13.771,6.318 27.711,12.29 41.913,17.575c12.148,4.52 24.492,8.538 37.051,11.757c4.317,1.107 8.659,2.113 13.022,3.019c2.888,0.6 5.783,1.161 8.69,1.664c5.457,0.946 10.947,1.707 16.458,2.255c5.994,0.596 12.013,0.939 18.036,0.996c1.601,0.016 3.202,0.011 4.802,-0.015c1.595,-0.025 3.189,-0.072 4.782,-0.13c2.672,-0.096 5.342,-0.231 8.01,-0.401c9.297,-0.591 18.565,-1.609 27.781,-2.961c14.443,-2.12 28.761,-5.057 42.929,-8.564c15.657,-3.876 31.137,-8.45 46.45,-13.511c4.049,-1.338 8.087,-2.711 12.113,-4.115c1.836,-0.64 3.669,-1.29 5.501,-1.941c1.919,-0.681 3.838,-1.366 5.753,-2.06c4.337,-1.571 8.662,-3.177 12.974,-4.815l7.97,-3.111l-2.263,-1.312l-14.277,5.13c-3.657,1.261 -7.323,2.497 -10.999,3.701c-1.262,0.413 -2.527,0.819 -3.793,1.223c-2.317,0.74 -4.639,1.469 -6.964,2.185c-6.629,2.042 -13.29,3.984 -19.981,5.813c-13.608,3.72 -27.348,6.975 -41.208,9.607c-12.671,2.406 -25.446,4.292 -38.291,5.47c-8.243,0.756 -16.516,1.219 -24.793,1.318c-2.336,0.028 -4.673,0.026 -7.009,-0.006c-1.537,-0.021 -3.073,-0.053 -4.609,-0.107c-1.525,-0.053 -3.05,-0.126 -4.573,-0.219c-7.655,-0.466 -15.277,-1.432 -22.82,-2.815c-4.074,-0.748 -8.125,-1.616 -12.15,-2.593c-1.268,-0.308 -2.533,-0.627 -3.795,-0.955c-0.76,-0.198 -1.52,-0.397 -2.277,-0.605c-2.283,-0.628 -4.557,-1.283 -6.823,-1.972c-4.841,-1.473 -9.639,-3.086 -14.394,-4.817c-10.811,-3.937 -21.396,-8.481 -31.786,-13.42c-13.655,-6.49 -26.978,-13.66 -40.096,-21.17c-5.551,-3.179 -11.065,-6.42 -16.531,-9.713l-1.267,0.598c-6.94,3.32 -13.857,6.686 -20.772,10.058l-1.02,0.498Z" style="fill:#faca33;fill-opacity:0.701961;"/><path d="M2203.11,236.715c8.281,-3.188 16.512,-6.53 24.703,-9.968c11.065,-4.644 22.055,-9.463 32.979,-14.427c15.89,-7.222 31.639,-14.752 47.267,-22.522c6.536,-3.25 13.049,-6.546 19.546,-9.873l10.823,-5.584l-0.367,-0.155l-10.611,5.433c-8.624,4.355 -17.288,8.631 -25.991,12.824c-14.138,6.811 -28.384,13.397 -42.758,19.694c-17.197,7.534 -34.577,14.656 -52.167,21.223l-5.687,2.043l2.263,1.312Z" style="fill:#faca33;fill-opacity:0.701961;"/><path d="M2209.36,232.298c-0.942,0.356 -1.884,0.71 -2.827,1.062l1.649,-0.618l1.178,-0.444Zm5.403,-2.057l-1.416,0.543l1.416,-0.543l1.433,-0.552l-1.433,0.552Zm25.14,-10.072c-1.535,0.639 -3.072,1.275 -4.61,1.907c1.538,-0.632 3.075,-1.268 4.61,-1.907Zm4.243,-1.776c-0.589,0.248 -1.177,0.495 -1.766,0.742l0.143,-0.06l1.623,-0.682Zm8.096,-3.451c-1.254,0.541 -2.51,1.079 -3.767,1.615c1.257,-0.536 2.513,-1.074 3.767,-1.615Zm6.458,-2.805c-0.948,0.415 -1.897,0.83 -2.847,1.242l1.234,-0.537l1.613,-0.705Zm10.948,-4.862c0.831,-0.374 1.661,-0.749 2.491,-1.124l-1.341,0.606l-1.15,0.518Zm14.525,-6.647l-0.579,0.269l0.579,-0.269l0.826,-0.384l-0.826,0.384Zm12.158,-5.727c-1.83,0.873 -3.663,1.742 -5.497,2.607l1.33,-0.628c1.39,-0.657 2.78,-1.317 4.167,-1.979Zm3.359,-1.607c0.589,-0.283 1.179,-0.567 1.768,-0.851l-1.326,0.638l-0.442,0.213Zm-20.859,9.804c-1.782,0.819 -3.566,1.634 -5.352,2.445l1.339,-0.609c1.785,-0.813 3.568,-1.63 5.35,-2.451l-1.337,0.615Zm45.382,-21.849c-1.023,0.513 -2.047,1.026 -3.072,1.538l1.453,-0.726l1.619,-0.812Zm27.869,-1.107c6.527,2.705 13.081,5.349 19.674,7.891c5.833,2.248 11.698,4.418 17.606,6.461c4.916,1.701 9.862,3.315 14.848,4.796c4.372,1.298 8.775,2.496 13.217,3.531c3.295,0.768 6.612,1.448 9.953,1.986c2.92,0.47 5.862,0.837 8.816,1.002c0.927,0.052 1.855,0.076 2.783,0.088l0.156,-0.005c4.221,-0.098 8.425,-0.611 12.574,-1.377c4.54,-0.839 9.021,-1.981 13.437,-3.32c3.235,-0.981 6.437,-2.07 9.607,-3.242c2.895,-1.07 5.764,-2.211 8.608,-3.412c0.642,-0.271 1.284,-0.542 1.924,-0.818c2.151,-0.929 4.288,-1.889 6.412,-2.878c3.525,-1.641 7.013,-3.362 10.472,-5.139c0.662,-0.341 1.323,-0.685 1.983,-1.029c0.497,-0.261 0.993,-0.522 1.489,-0.785l0.514,-0.227c2.762,-1.229 5.509,-2.49 8.239,-3.789c8.094,-3.85 16.046,-7.993 23.885,-12.336c9.11,-5.046 18.067,-10.365 26.921,-15.849c4.655,-2.883 9.28,-5.814 13.89,-8.768c1.445,-0.928 2.889,-1.857 4.332,-2.788c2.08,-1.345 4.16,-2.691 6.239,-4.038l0.545,-0.351c5.63,-3.593 11.265,-6.356 16.932,-9.948c7.614,-4.825 15.283,-9.566 23.029,-14.177c16.275,-9.686 32.894,-18.811 49.966,-27.018c4.812,-2.313 9.66,-4.55 14.544,-6.709l0.255,-0.098c2.07,-0.792 4.143,-1.574 6.222,-2.338c4.217,-1.55 8.457,-3.039 12.72,-4.458c5.431,-1.808 10.9,-3.509 16.406,-5.074c3.545,-1.009 7.104,-1.968 10.678,-2.867c3.045,-0.766 6.1,-1.49 9.166,-2.169c19.761,-4.377 40.001,-6.893 60.262,-6.552c3.865,0.065 7.729,0.234 11.584,0.513c4.364,0.317 8.718,0.775 13.05,1.384c1.322,0.185 2.642,0.382 3.959,0.598c3.803,0.622 7.586,1.362 11.347,2.2c6.814,1.519 13.553,3.368 20.209,5.47c7.13,2.251 14.166,4.794 21.116,7.549c7.504,2.975 14.908,6.198 22.23,9.596c7.408,3.438 14.733,7.054 21.994,10.792c7.635,3.932 15.201,7.998 22.718,12.15c16.942,9.357 33.64,19.146 50.313,28.972c5.622,3.316 11.24,6.637 16.862,9.953c7.88,4.675 15.766,9.341 23.69,13.952l16.199,9.395l3.423,1.93l1.772,1.011c8.866,5.047 17.816,10.003 26.843,14.814c10.375,5.528 20.853,10.867 31.476,15.902c9.797,4.643 19.72,9.03 29.799,13.026c6.86,2.719 13.792,5.256 20.806,7.548c6.577,2.149 13.225,4.083 19.946,5.728c6.043,1.479 12.144,2.724 18.294,3.663c2.097,0.32 4.198,0.6 6.304,0.846c2.926,0.343 5.862,0.609 8.803,0.785c7.326,0.437 14.682,0.274 21.992,-0.358c8.51,-0.735 16.959,-2.099 25.305,-3.901c9.345,-2.018 18.566,-4.585 27.665,-7.51c9.288,-2.985 18.454,-6.345 27.521,-9.943c6.69,-2.653 13.327,-5.438 19.924,-8.312c3.641,-1.586 7.27,-3.197 10.888,-4.834l1.929,-0.88l9.948,6.097c8.493,5.263 16.929,10.619 25.347,16.002c6.041,3.863 12.075,7.735 18.113,11.603c2.534,1.621 5.068,3.241 7.604,4.859l1.073,0.677l-14.225,9.017c-2.571,1.61 -5.147,3.214 -7.727,4.809c-1.251,0.773 -2.504,1.542 -3.756,2.312c-2.372,1.46 -4.744,2.917 -7.124,4.363c-3.908,2.375 -7.833,4.721 -11.776,7.037c-5.526,3.247 -11.09,6.43 -16.699,9.53c-4.279,2.366 -8.585,4.683 -12.92,6.942c-3.255,1.695 -6.526,3.359 -9.816,4.985c-21.521,10.636 -43.896,19.726 -67.16,25.771c-3.631,0.944 -7.283,1.813 -10.951,2.601c-4.935,1.06 -9.9,1.975 -14.89,2.73c-6.165,0.933 -12.366,1.623 -18.586,2.051c-3.835,0.263 -7.677,0.427 -11.519,0.506c-1.434,0.029 -2.867,0.043 -4.301,0.051c-0.637,0.001 -1.275,0.001 -1.912,0c-1.594,-0.01 -3.187,-0.027 -4.78,-0.062c-3.189,-0.07 -6.377,-0.196 -9.562,-0.376c-14.405,-0.81 -28.739,-2.7 -42.917,-5.357c-15.624,-2.928 -31.066,-6.788 -46.316,-11.264c-19.16,-5.623 -38.024,-12.218 -56.671,-19.349c-24.694,-9.444 -49.007,-19.846 -73.225,-30.441c-3.614,-1.583 -7.226,-3.169 -10.837,-4.757l-1.163,-0.515c-6.7,-2.97 -13.399,-5.942 -20.102,-8.907c-8.638,-3.816 -17.283,-7.619 -25.969,-11.322l-5.592,-2.375l-11.125,-4.726c-6.527,-2.705 -13.081,-5.349 -19.674,-7.891c-5.833,-2.249 -11.698,-4.418 -17.606,-6.462c-4.916,-1.7 -9.862,-3.314 -14.848,-4.795c-4.372,-1.298 -8.775,-2.496 -13.217,-3.531c-3.295,-0.769 -6.612,-1.449 -9.953,-1.986c-2.92,-0.47 -5.862,-0.837 -8.816,-1.002c-0.927,-0.052 -1.854,-0.077 -2.783,-0.088l-0.156,0.005c-4.221,0.098 -8.424,0.611 -12.574,1.377c-4.54,0.839 -9.021,1.981 -13.437,3.32c-3.235,0.981 -6.437,2.069 -9.607,3.242c-2.895,1.07 -5.764,2.211 -8.608,3.411c-0.642,0.272 -1.284,0.542 -1.924,0.819c-2.151,0.929 -4.288,1.889 -6.412,2.878c-3.525,1.641 -7.013,3.362 -10.472,5.139c-0.662,0.341 -1.323,0.684 -1.983,1.029c-0.496,0.261 -0.993,0.522 -1.488,0.785l-0.514,0.227c-2.763,1.229 -5.51,2.49 -8.24,3.789c-8.094,3.85 -16.046,7.993 -23.885,12.336c-9.11,5.046 -18.067,10.365 -26.921,15.848c-4.655,2.884 -24.461,14.659 -24.461,14.659l-1.908,1.234c-3.545,2.291 -11.182,7.22 -15.569,10.001c-7.614,4.825 -15.283,9.566 -23.029,14.177c-16.275,9.686 -32.894,18.811 -49.966,27.018c-4.812,2.313 -9.66,4.55 -14.544,6.709l-0.255,0.098c-1.723,0.659 -3.449,1.312 -5.179,1.953c-3.148,1.166 -6.309,2.297 -9.483,3.392c-5.382,1.856 -10.801,3.606 -16.256,5.233c-1.835,0.547 -3.673,1.078 -5.515,1.598c-7.538,2.129 -15.149,4.008 -22.819,5.601c-12.706,2.639 -25.587,4.484 -38.544,5.277c-2.921,0.179 -5.845,0.304 -8.771,0.373c-1.476,0.035 -2.953,0.053 -4.429,0.06c-0.848,0.002 -1.696,0 -2.544,-0.005c-1.491,-0.014 -2.983,-0.039 -4.473,-0.082c-2.795,-0.081 -5.588,-0.216 -8.377,-0.41c-4.141,-0.287 -8.272,-0.701 -12.386,-1.249c-1.76,-0.235 -3.518,-0.491 -5.271,-0.778c-1.468,-0.24 -2.933,-0.499 -4.395,-0.773c-13.433,-2.518 -26.586,-6.394 -39.418,-11.073c-7.023,-2.561 -13.957,-5.365 -20.812,-8.347c-7.176,-3.121 -14.267,-6.436 -21.29,-9.887c-13.533,-6.65 -26.817,-13.797 -39.97,-21.166c-14.798,-8.291 -29.43,-16.872 -44.042,-25.483c-5.622,-3.316 -11.24,-6.637 -16.862,-9.953c-10.646,-6.317 -21.302,-12.616 -32.016,-18.781c1.035,-0.398 2.069,-0.799 3.103,-1.203l-1.551,0.603c-0.517,0.201 -1.035,0.401 -1.552,0.6l-2.263,-1.312l-5.61,-3.254c-10.598,-6.063 -21.262,-12.012 -32.038,-17.755c-10.375,-5.529 -20.853,-10.867 -31.476,-15.902c-9.797,-4.644 -19.72,-9.03 -29.799,-13.026c-6.86,-2.719 -13.792,-5.256 -20.806,-7.548c-6.577,-2.149 -13.225,-4.083 -19.946,-5.728c-6.042,-1.479 -12.144,-2.725 -18.294,-3.663c-2.097,-0.32 -4.198,-0.6 -6.304,-0.847c-2.926,-0.342 -5.862,-0.608 -8.803,-0.784c-7.326,-0.437 -14.682,-0.274 -21.992,0.358c-8.51,0.734 -16.959,2.098 -25.305,3.901c-9.345,2.018 -18.566,4.585 -27.665,7.51c-9.288,2.985 -18.454,6.345 -27.521,9.942c-6.69,2.654 -13.327,5.438 -19.924,8.313c-3.641,1.586 -7.27,3.197 -10.888,4.834c-2.095,0.948 -4.187,1.904 -6.277,2.863c-0.525,0.241 -1.049,0.483 -1.572,0.726l-12.949,6.115c-10.495,-6.259 -20.872,-12.686 -31.229,-19.141c-7.11,-4.438 -14.213,-8.888 -21.325,-13.323l-7.665,-4.745l11.335,-7.26c6.616,-4.227 13.239,-8.442 19.893,-12.61c2.571,-1.61 5.147,-3.214 7.728,-4.809c1.25,-0.773 2.503,-1.542 3.755,-2.312c1.337,-0.823 2.673,-1.647 4.012,-2.466c3.117,-1.907 6.243,-3.799 9.38,-5.672c14.944,-8.924 30.145,-17.44 45.767,-25.125c14.321,-7.045 29.004,-13.39 44.092,-18.612c10.573,-3.66 21.344,-6.764 32.276,-9.155c11.169,-2.443 22.506,-4.138 33.913,-4.946c4.796,-0.34 9.604,-0.528 14.411,-0.576c3.18,-0.032 6.36,-0.011 9.54,0.07c7.022,0.178 14.036,0.629 21.027,1.314c9.583,0.939 19.121,2.317 28.593,4.044c10.506,1.916 20.931,4.261 31.269,6.933c10.737,2.775 21.381,5.903 31.94,9.293c11.227,3.605 22.358,7.507 33.409,11.618c27.542,10.246 54.58,21.787 81.496,33.562c3.614,1.583 7.226,3.169 10.837,4.757l1.163,0.515c6.7,2.97 13.399,5.942 20.102,8.907c9.524,4.207 19.057,8.398 28.664,12.467l14.022,5.956Z" style="fill:#ffe955;fill-opacity:0.701961;"/><path d="M1850.62,222.612l1.02,-0.498c6.915,-3.372 13.832,-6.738 20.772,-10.058l1.267,-0.598c-10.495,-6.259 -20.872,-12.686 -31.229,-19.141c-7.11,-4.438 -14.213,-8.888 -21.325,-13.323l-7.665,-4.745l-9.816,6.286l-16.578,10.5l7.093,3.427c9.09,4.427 18.132,8.948 27.167,13.484c6.419,3.227 12.835,6.462 19.256,9.686l10.038,4.98Z" style="fill:#ffe955;fill-opacity:0.8;"/><path d="M1850.62,222.612l1.02,-0.498c6.915,-3.372 13.832,-6.738 20.772,-10.058l1.267,-0.598c-10.495,-6.259 -20.872,-12.686 -31.229,-19.141c-7.11,-4.438 -14.213,-8.888 -21.325,-13.323l-7.665,-4.745l-9.816,6.286l-16.578,10.5l7.093,3.427c9.09,4.427 18.132,8.948 27.167,13.484c6.419,3.227 12.835,6.462 19.256,9.686l10.038,4.98Z" style="fill:#faca33;fill-opacity:0.701961;"/><path d="M1443.44,228.816l7.476,-4.621c-12.173,-4.14 -24.237,-8.538 -36.226,-13.131c-19.144,-7.335 -38.096,-15.168 -56.887,-23.366l-18.06,-8.03l-7.174,2.763l3.415,1.924c1.518,0.852 3.038,1.702 4.558,2.551c6.701,3.733 13.423,7.428 20.175,11.068c18.815,10.144 37.845,19.896 57.135,29.108c5.409,2.583 10.839,5.124 16.285,7.609l9.303,-5.875Z" style="fill:#faca33;fill-opacity:0.701961;"/><path d="M1443.44,228.816l7.476,-4.621c-12.173,-4.14 -24.237,-8.538 -36.226,-13.131c-19.144,-7.335 -38.096,-15.168 -56.887,-23.366l-18.06,-8.03l-7.174,2.763l3.415,1.924c1.518,0.852 3.038,1.702 4.558,2.551c6.701,3.733 13.423,7.428 20.175,11.068c18.815,10.144 37.845,19.896 57.135,29.108c5.409,2.583 10.839,5.124 16.285,7.609l9.303,-5.875Z" style="fill:#ffe955;fill-opacity:0.701961;"/></g></g></svg>